<svg className="styleforlables" width="640" height="121" viewBox="0 0 640 121" fill="none"
                 xmlns="http://www.w3.org/2000/svg">
                <g clipPath="url(#clip0_96_1985)">
                    <path d="M154.262 5.75879H170.241V92.915H196.533V107.441H154.262V5.75879Z" fill="#B5EAEE"/>
                    <path
                        d="M226.725 108.894C218.881 108.894 212.877 106.667 208.713 102.212C204.549 97.757 202.467 91.4626 202.467 83.3278V29.872C202.467 21.7374 204.549 15.4428 208.713 10.9882C212.877 6.53348 218.881 4.30615 226.725 4.30615C234.569 4.30615 240.573 6.53348 244.738 10.9882C248.902 15.4428 250.984 21.7374 250.984 29.872V83.3278C250.984 91.4626 248.902 97.757 244.738 102.212C240.573 106.667 234.569 108.894 226.725 108.894ZM226.725 94.3678C232.245 94.3678 235.005 91.0266 235.005 84.3446V28.8552C235.005 22.1732 232.245 18.8322 226.725 18.8322C221.205 18.8322 218.445 22.1732 218.445 28.8552V84.3446C218.445 91.0266 221.205 94.3678 226.725 94.3678Z"
                        fill="#B5EAEE"/>
                    <path
                        d="M284.45 108.894C276.703 108.894 270.795 106.715 266.728 102.357C262.661 97.9026 260.627 91.5594 260.627 83.3278V29.872C260.627 21.6406 262.661 15.346 266.728 10.9882C270.795 6.53348 276.703 4.30615 284.45 4.30615C292.197 4.30615 298.104 6.53348 302.171 10.9882C306.239 15.346 308.273 21.6406 308.273 29.872V38.5876H293.165V28.8552C293.165 22.1732 290.405 18.8322 284.885 18.8322C279.366 18.8322 276.606 22.1732 276.606 28.8552V84.4902C276.606 91.0754 279.366 94.3678 284.885 94.3678C290.405 94.3678 293.165 91.0754 293.165 84.4902V64.5894H285.176V50.0634H308.273V83.3278C308.273 91.5594 306.239 97.9026 302.171 102.357C298.104 106.715 292.197 108.894 284.45 108.894Z"
                        fill="#B5EAEE"/>
                    <path
                        d="M341.628 108.894C333.784 108.894 327.78 106.667 323.616 102.212C319.451 97.757 317.369 91.4626 317.369 83.3278V29.872C317.369 21.7374 319.451 15.4428 323.616 10.9882C327.78 6.53348 333.784 4.30615 341.628 4.30615C349.472 4.30615 355.476 6.53348 359.64 10.9882C363.804 15.4428 365.886 21.7374 365.886 29.872V83.3278C365.886 91.4626 363.804 97.757 359.64 102.212C355.476 106.667 349.472 108.894 341.628 108.894ZM341.628 94.3678C347.148 94.3678 349.908 91.0266 349.908 84.3446V28.8552C349.908 22.1732 347.148 18.8322 341.628 18.8322C336.108 18.8322 333.348 22.1732 333.348 28.8552V84.3446C333.348 91.0266 336.108 94.3678 341.628 94.3678Z"
                        fill="#B5EAEE"/>
                    <path d="M376.723 5.75879H392.701V107.441H376.723V5.75879Z" fill="#B5EAEE"/>
                    <path
                        d="M404.668 5.75879H428.2C436.14 5.75879 442.096 7.88927 446.068 12.1503C450.04 16.4112 452.024 22.6574 452.024 30.8889V40.9118C452.024 49.1434 450.04 55.3894 446.068 59.6506C442.096 63.9114 436.14 66.0418 428.2 66.0418H420.648V107.441H404.668V5.75879ZM428.2 51.5158C430.816 51.5158 432.752 50.7894 434.012 49.337C435.368 47.8842 436.044 45.415 436.044 41.9286V29.8721C436.044 26.3858 435.368 23.9164 434.012 22.4638C432.752 21.0112 430.816 20.2849 428.2 20.2849H420.648V51.5158H428.2Z"
                        fill="#B5EAEE"/>
                    <path
                        d="M482.04 108.894C474.296 108.894 468.436 106.715 464.464 102.357C460.496 97.9026 458.508 91.5594 458.508 83.3278V77.5174H473.616V84.4902C473.616 91.0754 476.376 94.3678 481.896 94.3678C484.608 94.3678 486.64 93.593 487.996 92.0438C489.448 90.3974 490.176 87.7826 490.176 84.1994C490.176 79.9386 489.208 76.2102 487.272 73.0146C485.336 69.7218 481.752 65.7998 476.52 61.2482C469.936 55.4378 465.336 50.2086 462.72 45.5602C460.108 40.815 458.8 35.4888 458.8 29.5815C458.8 21.5438 460.832 15.346 464.9 10.9882C468.968 6.53348 474.876 4.30615 482.624 4.30615C490.272 4.30615 496.036 6.53348 499.908 10.9882C503.88 15.346 505.864 21.6406 505.864 29.872V34.0846H490.756V28.8552C490.756 25.369 490.08 22.8511 488.724 21.3016C487.368 19.6554 485.384 18.8322 482.768 18.8322C477.44 18.8322 474.78 22.0764 474.78 28.5647C474.78 32.2446 475.748 35.6824 477.684 38.8782C479.716 42.0738 483.348 45.9474 488.58 50.499C495.26 56.3094 499.86 61.5874 502.38 66.3326C504.896 71.0778 506.156 76.6458 506.156 83.0374C506.156 91.3658 504.072 97.757 499.908 102.212C495.84 106.667 489.884 108.894 482.04 108.894Z"
                        fill="#B5EAEE"/>
                    <path
                        d="M538.56 108.894C530.812 108.894 524.904 106.715 520.836 102.357C516.768 97.9026 514.736 91.5594 514.736 83.3278V5.75879H530.716V84.4902C530.716 87.9762 531.392 90.4942 532.748 92.0438C534.2 93.593 536.236 94.3678 538.848 94.3678C541.464 94.3678 543.448 93.593 544.804 92.0438C546.256 90.4942 546.984 87.9762 546.984 84.4902V5.75879H562.38V83.3278C562.38 91.5594 560.348 97.9026 556.28 102.357C552.212 106.715 546.304 108.894 538.56 108.894Z"
                        fill="#B5EAEE"/>
                    <path
                        d="M573.76 5.75879H596.568L606.736 78.5342H607.024L617.196 5.75879H640V107.441H624.892V30.4531H624.604L612.98 107.441H599.616L587.996 30.4531H587.708V107.441H573.76V5.75879Z"
                        fill="#B5EAEE"/>
                    <path
                        d="M0 107.441C19.6579 107.441 35.5936 91.5053 35.5936 71.8477C35.5936 52.1897 19.6579 36.2539 0 36.2539V61.1693C5.89732 61.1693 10.678 65.9501 10.678 71.8477C10.678 77.7449 5.89732 82.5257 0 82.5257V107.441Z"
                        fill="#B5EAEE"/>
                    <path
                        d="M118.646 48.1187C112.563 46.1919 106.086 45.1523 99.3656 45.1523C64.1452 45.1523 35.5938 73.7043 35.5938 108.924C35.5938 112.46 35.8814 115.928 36.4345 119.306H76.058C74.6436 116.135 73.8572 112.622 73.8572 108.924C73.8572 94.8363 85.2776 83.4155 99.3656 83.4155C107.066 83.4155 113.968 86.8271 118.646 92.2211V48.1187Z"
                        fill="#B5EAEE"/>
                    <path
                        d="M6.25781 0.660156C9.20877 27.3551 31.841 48.1186 59.3226 48.1186C86.8038 48.1186 109.436 27.3551 112.387 0.660156H74.205C71.8478 6.56936 66.0726 10.745 59.3226 10.745C52.5722 10.745 46.7974 6.56936 44.4398 0.660156H6.25781Z"
                        fill="#B5EAEE"/>
                </g>
                <defs>
                    <clipPath id="clip0_96_1985">
                        <rect width="640" height="120" fill="white" transform="translate(0 0.660156)"/>
                    </clipPath>
                </defs>
            </svg>