 <svg width="216" height="121" viewBox="0 0 216 121" fill="none" xmlns="http://www.w3.org/2000/svg">
                <g clipPath="url(#clip0_96_1998)">
                    <path
                        d="M215.983 43.3388C216.006 43.172 216.006 43.0034 215.983 42.8366C216.005 42.7007 216.005 42.5621 215.983 42.4259L214.383 30.6953C214.152 29.2918 213.535 27.9801 212.6 26.9068L212.326 26.5873L211.823 26.0852L184.122 2.25886L184.899 3.03487C184.263 2.27534 183.465 1.66781 182.564 1.25705C181.662 0.846277 180.679 0.642706 179.688 0.661349H171.277C169.909 0.63429 168.573 1.0685 167.483 1.89376C166.338 1.07347 164.96 0.641482 163.552 0.661349H155.141C154.037 0.643477 152.949 0.91685 151.986 1.45387C151.023 1.99089 150.219 2.77248 149.655 3.7195C148.786 5.07211 148.46 6.7018 148.741 8.28394L149.792 15.6783C149.096 15.284 148.307 15.0794 147.507 15.085H106.777C105.316 15.0941 103.888 15.5218 102.663 16.3173C101.479 17.0578 100.528 18.118 99.9207 19.3754L96.7665 16.6825C95.5251 15.5355 93.8865 14.9139 92.1954 14.948H28.2902C26.8238 14.9747 25.3898 15.3838 24.1306 16.1348C22.4078 17.1416 21.1453 18.7787 20.6107 20.6992L0.31464 88.481C-0.0645847 89.5979 -0.10189 90.8024 0.207502 91.9406C0.516894 93.0785 1.15897 94.0991 2.05171 94.8713C2.28433 95.0681 2.52858 95.2511 2.78311 95.4188C2.78311 95.4188 2.37164 95.1449 2.14308 94.9169L29.8446 118.789C31.0164 119.866 32.5485 120.468 34.1412 120.477H98.5494C100.02 120.439 101.455 120.014 102.709 119.245C103.418 118.858 104.053 118.348 104.583 117.739L104.812 117.419L105.178 116.963L105.452 116.461L108.469 119.063C109.624 120.097 111.123 120.666 112.674 120.66H177.219C178.689 120.611 180.121 120.187 181.379 119.428C182.072 119.017 182.703 118.51 183.253 117.921L183.482 117.602L183.848 117.146C184.042 116.857 184.21 116.551 184.35 116.232C184.5 115.956 184.622 115.665 184.716 115.365L203.229 53.4719V52.9241C203.252 52.7117 203.252 52.4975 203.229 52.2851V51.8744C203.252 51.7382 203.252 51.5996 203.229 51.4634C203.25 51.1748 203.25 50.885 203.229 50.5961H209.172C209.689 50.6435 210.209 50.6435 210.726 50.5961H211.138C211.472 50.4965 211.794 50.3585 212.098 50.1854H212.555L213.377 49.5464L213.743 49.2725L214.383 48.4508V48.1772L214.84 47.4011C214.815 47.2502 214.815 47.0957 214.84 46.9448C214.816 46.8707 214.816 46.7906 214.84 46.7165C214.937 46.4489 215.014 46.1741 215.069 45.8948C215.048 45.8048 215.048 45.7109 215.069 45.6209C215.047 45.485 215.047 45.3461 215.069 45.2102C215.069 45.2102 215.983 43.43 215.983 43.3388Z"
                        fill="#273E40"/>
                    <path
                        d="M94.0691 20.1518C94.3118 20.3709 94.4813 20.659 94.5548 20.9773C94.6286 21.2956 94.6025 21.6288 94.4807 21.9319L74.2304 89.668C73.9754 90.4075 73.4537 91.0258 72.7676 91.4026C72.2093 91.7755 71.5631 91.9957 70.8932 92.0416H6.53109C5.98143 92.0152 5.46069 91.7878 5.06829 91.4026C4.83486 91.1869 4.67103 90.9067 4.59774 90.598C4.52445 90.289 4.54509 89.9653 4.6569 89.668L24.953 21.9319C25.1868 21.183 25.6921 20.5482 26.37 20.1518C26.9375 19.8056 27.5806 19.602 28.2442 19.5584H92.6063C93.1517 19.5636 93.6746 19.7758 94.0691 20.1518ZM60.4709 76.0204L72.5846 35.5795H38.6666L26.5985 76.0204H60.4709ZM155.506 20.8364C155.725 21.0912 156 21.2933 156.309 21.4277C156.617 21.562 156.952 21.6251 157.289 21.6124H165.654C165.972 21.6155 166.286 21.5375 166.566 21.3857C166.846 21.234 167.083 21.0135 167.254 20.7451C167.402 20.5355 167.507 20.2982 167.562 20.0472C167.617 19.7963 167.621 19.537 167.574 19.2845L165.928 7.23445C165.771 6.67675 165.49 6.16177 165.105 5.72818C164.886 5.47336 164.611 5.27128 164.303 5.13694C163.994 5.0026 163.659 4.93948 163.323 4.95223H154.957C154.639 4.94914 154.325 5.02714 154.045 5.17888C153.765 5.33062 153.528 5.55109 153.357 5.8195C153.037 6.4585 152.9 6.86929 153.037 7.23445L154.729 19.2845C154.815 19.8713 155.088 20.415 155.506 20.8364ZM182.064 7.14316C181.908 6.58543 181.626 6.07045 181.242 5.63689C181.031 5.383 180.765 5.18098 180.464 5.0464C180.162 4.91185 179.834 4.84837 179.505 4.86094H171.093C170.78 4.85203 170.47 4.92793 170.197 5.0806C169.923 5.23327 169.696 5.45707 169.539 5.72818C169.235 6.13312 169.104 6.64177 169.174 7.14316L170.865 19.1932C170.971 19.7738 171.24 20.3121 171.642 20.7451C171.866 20.995 172.141 21.1937 172.449 21.3276C172.756 21.4615 173.089 21.5275 173.425 21.521H181.836C182.148 21.5252 182.456 21.4473 182.729 21.2951C183.002 21.1428 183.23 20.9218 183.39 20.6539C183.549 20.4497 183.66 20.2124 183.716 19.9597C183.771 19.707 183.769 19.4451 183.71 19.1932L182.064 7.14316ZM148.146 25.4009L147.323 19.4671H106.777C106.14 19.5021 105.525 19.7071 104.994 20.0605C104.658 20.2438 104.364 20.4979 104.136 20.8052C103.907 21.1126 103.748 21.4658 103.669 21.8406L100.286 33.1603C100.151 33.4432 100.105 33.7606 100.154 34.0702C100.203 34.3798 100.344 34.6672 100.56 34.8949C100.946 35.2567 101.449 35.4676 101.977 35.4883H151.255L139.141 75.9292H90.0008C89.3672 75.9436 88.7501 76.1332 88.2182 76.4767C87.5717 76.8868 87.0995 77.5207 86.8925 78.2569L83.4641 89.5768C83.3522 89.8672 83.3228 90.1828 83.3792 90.4888C83.4359 90.7951 83.5757 91.0795 83.7839 91.3111C84.1574 91.6972 84.6644 91.9258 85.2011 91.9501H149.746C150.414 91.8928 151.057 91.6735 151.62 91.3111C152.295 90.9325 152.802 90.313 153.037 89.5768L171.596 27.6831H150.706C150.375 27.6896 150.045 27.6281 149.739 27.5025C149.432 27.3769 149.155 27.1898 148.923 26.9527C148.545 26.5388 148.278 26.0365 148.146 25.4921V25.4009Z"
                        fill="#B5EAEE"/>
                </g>
                <defs>
                    <clipPath id="clip0_96_1998">
                        <rect width="216" height="120" fill="white" transform="translate(0 0.660156)"/>
                    </clipPath>
                </defs>
            </svg>