<svg width="300" height="121" viewBox="0 0 300 121" fill="none" xmlns="http://www.w3.org/2000/svg">
                <g clipPath="url(#clip0_96_2001)">
                    <path
                        d="M14.3102 13.3652C15.0902 9.66316 18.7802 6.66016 22.5392 6.66016H42.9752L25.9802 87.1292H5.54424C1.78224 87.1292 -0.63576 84.1292 0.14724 80.4242L14.3102 13.3652ZM82.4312 13.3652C83.2142 9.66316 86.9012 6.66016 90.6602 6.66016H111.096L94.1012 87.1292H73.6652C69.9032 87.1292 67.4852 84.1292 68.2682 80.4242L82.4312 13.3652ZM218.676 13.3652C219.456 9.66316 223.14 6.66016 226.905 6.66016H247.341L230.346 87.1292H209.907C206.145 87.1292 203.73 84.1292 204.513 80.4242L218.676 13.3652ZM117.909 6.66016H138.345C142.107 6.66016 144.525 9.66016 143.742 13.3652L129.579 80.4242C128.799 84.1292 125.112 87.1292 121.35 87.1292H100.914L117.909 6.66016ZM254.154 6.66016H274.59C278.352 6.66016 280.77 9.66016 279.987 13.3652L265.821 80.4242C265.041 84.1292 261.357 87.1292 257.595 87.1292H237.156L254.154 6.66016ZM150.555 13.3652C151.335 9.66316 155.019 6.66016 158.781 6.66016H179.22L162.222 87.1292H141.786C138.024 87.1292 135.606 84.1292 136.392 80.4242L150.552 13.3652H150.555ZM186.03 6.66016H206.469C210.231 6.66016 212.646 9.66016 211.863 13.3652L190.62 113.955C189.834 117.657 186.15 120.66 182.388 120.66H161.949L186.03 6.66016ZM38.4572 60.3062H65.7062L61.4582 80.4242C60.6752 84.1292 56.9882 87.1292 53.2292 87.1292H32.7902L38.4542 60.3092L38.4572 60.3062ZM133.56 93.8372H160.806L155.142 120.66H134.706C130.941 120.66 128.526 117.66 129.309 113.955L133.56 93.8372ZM207.522 100.074L204.072 116.412C203.922 117.114 203.688 117.306 202.974 117.306H201.405C200.691 117.306 200.535 117.114 200.685 116.412L204.135 100.074C204.285 99.3752 204.519 99.1802 205.233 99.1802H206.802C207.516 99.1802 207.672 99.3752 207.522 100.074ZM212.058 111.096H211.737C211.395 111.096 211.275 111.192 211.206 111.531L210.174 116.412C210.024 117.114 209.787 117.306 209.076 117.306H207.504C206.793 117.306 206.637 117.114 206.784 116.412L210.234 100.074C210.384 99.3752 210.624 99.1802 211.335 99.1802H214.575C218.307 99.1802 219.72 100.509 219.03 103.77L218.454 106.503C217.764 109.767 215.79 111.096 212.058 111.096ZM213.006 102.999L212.106 107.277C212.031 107.616 212.109 107.712 212.454 107.712H212.97C214.17 107.712 214.815 107.229 215.076 105.996L215.436 104.28C215.697 103.05 215.259 102.564 214.056 102.564H213.54C213.198 102.564 213.078 102.66 213.006 102.999ZM224.22 105.633L226.77 108.438C228.108 109.887 228.294 110.757 227.952 112.377L227.862 112.812C227.217 115.857 225.681 117.549 222.12 117.549C218.562 117.549 217.683 116.124 218.505 112.23L218.607 111.75C218.757 111.048 218.994 110.853 219.705 110.853H221.373C222.087 110.853 222.243 111.048 222.093 111.747L221.868 112.812C221.664 113.778 221.976 114.165 222.834 114.165C223.695 114.165 224.163 113.805 224.349 112.935L224.445 112.473C224.589 111.795 224.511 111.459 223.773 110.661L221.373 108.075C220.029 106.65 219.858 105.825 220.2 104.205L220.311 103.677C220.956 100.632 222.492 98.9371 226.05 98.9371C229.611 98.9371 230.49 100.365 229.668 104.256L229.566 104.739C229.416 105.441 229.179 105.633 228.468 105.633H226.797C226.086 105.633 225.93 105.441 226.077 104.739L226.302 103.677C226.506 102.708 226.197 102.324 225.336 102.324C224.478 102.324 224.007 102.684 223.824 103.554L223.737 103.965C223.587 104.667 223.665 105.006 224.22 105.633ZM238.596 100.074C238.746 99.3752 238.98 99.1802 239.694 99.1802H241.263C241.977 99.1802 242.133 99.3752 241.983 100.074L239.415 112.233C238.593 116.124 237.114 117.549 233.553 117.549C229.995 117.549 229.116 116.124 229.938 112.23L232.506 100.074C232.656 99.3752 232.893 99.1802 233.604 99.1802H235.176C235.887 99.1802 236.043 99.3752 235.896 100.074L233.205 112.812C233.001 113.778 233.337 114.165 234.27 114.165C235.176 114.165 235.701 113.778 235.905 112.812L238.596 100.074ZM248.814 109.911C248.823 110.106 248.886 110.151 249.009 110.151C249.129 110.151 249.216 110.106 249.306 109.911L253.548 99.8102C253.755 99.3002 254.001 99.1802 254.616 99.1802H256.998C257.709 99.1802 257.865 99.3752 257.718 100.074L254.268 116.412C254.118 117.114 253.878 117.306 253.167 117.306H252.039C251.328 117.306 251.169 117.114 251.319 116.412L252.975 108.582C253.02 108.366 252.981 108.315 252.834 108.315C252.735 108.315 252.624 108.366 252.564 108.534L249.138 116.511C248.892 117.09 248.577 117.306 247.866 117.306H247.2C246.462 117.306 246.24 117.09 246.24 116.511L246.156 108.531C246.141 108.363 246.102 108.315 245.979 108.315C245.832 108.315 245.772 108.366 245.727 108.582L244.074 116.412C243.924 117.114 243.69 117.306 242.976 117.306H241.848C241.134 117.306 240.978 117.114 241.128 116.412L244.578 100.074C244.728 99.3752 244.965 99.1802 245.676 99.1802H247.716C248.574 99.1802 248.85 99.3752 248.844 100.221L248.811 109.911H248.814ZM300 6.66016C300 9.97516 297.33 12.6602 294.039 12.6602C293.254 12.6578 292.477 12.5007 291.752 12.1979C291.027 11.895 290.369 11.4524 289.816 10.8952C289.262 10.338 288.824 9.67717 288.526 8.95052C288.228 8.22386 288.076 7.44558 288.078 6.66016C288.078 3.34516 290.748 0.660156 294.039 0.660156C297.33 0.660156 300 3.34516 300 6.66016Z"
                        fill="#B5EAEE"/>
                </g>
                <defs>
                    <clipPath id="clip0_96_2001">
                        <rect width="300" height="120" fill="white" transform="translate(0 0.660156)"/>
                    </clipPath>
                </defs>
            </svg>