<svg width="252" height="121" viewBox="0 0 252 121" fill="none" xmlns="http://www.w3.org/2000/svg">
                <g clipPath="url(#clip0_96_2003)">
                    <path
                        d="M228.186 117.496V117.78C228.115 117.941 228.031 118.096 227.933 118.242L227.572 118.668L227.21 118.988C226.834 119.303 226.406 119.555 225.946 119.734H225.766C225.317 119.91 224.84 120.006 224.357 120.018H209.911C209.525 120.03 209.142 119.961 208.786 119.814C208.431 119.666 208.112 119.445 207.852 119.166L192.069 103.109L181.703 118.597L181.487 118.881L181.126 119.307H180.945H180.764H180.512C180.222 119.55 179.892 119.743 179.536 119.876L179.175 120.054C178.722 120.216 178.248 120.312 177.767 120.338H163.32C162.935 120.35 162.551 120.28 162.196 120.133C161.84 119.986 161.522 119.765 161.261 119.485L155.88 113.411L136.955 120.054C136.512 120.249 136.031 120.346 135.546 120.338C134.89 120.355 134.25 120.141 133.741 119.734L133.451 119.45L124.422 109.29C124.061 110.498 123.772 111.706 123.375 112.842L123.158 113.34C123.096 113.504 123.011 113.66 122.905 113.802L122.689 114.086L122.291 114.512L121.786 114.974C121.507 115.185 121.204 115.363 120.883 115.507L119.836 116.785C119.339 116.969 118.813 117.065 118.283 117.07H106.436C106.053 117.089 105.671 117.026 105.315 116.885C104.96 116.743 104.64 116.528 104.378 116.253L100.477 111.848L98.7795 117.389C98.7393 117.578 98.6658 117.758 98.5629 117.922L98.346 118.384L98.1294 118.668L97.7685 119.094C97.6179 119.266 97.4481 119.421 97.2627 119.556C96.9624 119.755 96.6486 119.933 96.3237 120.089L95.8542 120.338C95.3706 120.528 94.8576 120.636 94.3371 120.657H72.8838C72.4926 120.675 72.102 120.608 71.7402 120.46C71.3781 120.313 71.0535 120.089 70.7892 119.805L67.647 116.253H56.2704L56.0175 117.105C55.9737 117.288 55.9131 117.466 55.8369 117.638C55.7388 117.784 55.6542 117.939 55.584 118.1L55.3674 118.384L55.0062 118.81C54.8556 118.982 54.6861 119.137 54.5007 119.272C54.2004 119.47 53.8866 119.649 53.5614 119.805L53.0919 120.054C52.6086 120.244 52.0956 120.352 51.5751 120.373H38.1759C37.7904 120.386 37.407 120.316 37.0515 120.169C36.6963 120.021 36.3774 119.8 36.1173 119.521L31.9638 114.867H19.5757C19.1928 114.886 18.8103 114.823 18.4548 114.682C18.0992 114.541 17.7793 114.325 17.5171 114.05L0.650625 96.0758C0.785694 96.2099 0.944907 96.3185 1.12016 96.3956C0.80778 96.2132 0.547005 95.9567 0.36174 95.6495C0.124039 95.1932 0 94.688 0 94.1753C0 93.6626 0.124039 93.1574 0.36174 92.7011C9.90087 73.4291 17.7194 53.378 23.7292 32.7746V32.5259L22.5373 31.1759C22.5373 31.1759 22.7179 31.1759 22.8263 31.4246C22.4267 31.0637 22.1448 30.5943 22.0162 30.0759C21.8876 29.5574 21.9181 29.0131 22.1039 28.5118L26.0406 15.5105C26.3692 14.5294 26.9883 13.6671 27.8184 13.0342C28.6484 12.4013 29.6517 12.0267 30.6996 11.9582H45.1464L47.4939 4.21429C47.8269 3.23567 48.447 2.376 49.2762 1.74377C50.1054 1.11154 51.1065 0.7351 52.1529 0.662038H65.6607C66.0621 0.646664 66.4617 0.725659 66.8259 0.892456C67.1904 1.05925 67.5087 1.30907 67.7553 1.62116L72.3783 6.84301L72.7395 5.88388C73.0659 4.89481 73.6893 4.02613 74.5272 3.39209C75.3654 2.75805 76.3791 2.38834 77.4348 2.33161H125.145C125.545 2.32455 125.942 2.40728 126.305 2.57346C126.668 2.73964 126.987 2.98493 127.24 3.29073L141.686 19.6667L141.434 6.02599C141.454 5.42509 141.598 4.83457 141.859 4.29085C142.12 3.74713 142.491 3.26168 142.95 2.86442C143.823 1.97243 145.015 1.45005 146.273 1.40804H160.72C161.182 1.39403 161.641 1.50189 162.047 1.72046C162.454 1.93904 162.793 2.26037 163.031 2.6513C162.968 2.50862 162.883 2.3767 162.778 2.26055L173.613 14.3738L175.455 8.29945C175.775 7.31317 176.392 6.4456 177.224 5.81134C178.056 5.17711 179.063 4.80604 180.114 4.74718H232.845C233.248 4.73038 233.65 4.8049 234.02 4.96501C234.389 5.12515 234.716 5.36659 234.976 5.67073L251.445 24.249L251.661 24.4977C251.838 24.765 251.949 25.069 251.986 25.3858C251.986 25.3858 251.986 25.3858 251.986 25.5634C252.005 25.8236 252.005 26.0847 251.986 26.3449C251.999 26.546 251.999 26.7477 251.986 26.9488L235.409 81.263L235.192 81.7958L234.939 82.2575C234.939 82.2575 234.939 82.4351 234.723 82.5416L234.361 82.9679L233.82 83.4299C233.531 83.6429 233.206 83.7851 232.917 83.9627C232.628 84.1403 232.592 84.1757 232.447 84.2114C231.958 84.4223 231.429 84.5312 230.894 84.5309H223.671L226.524 87.728V87.9767C226.708 88.3055 226.818 88.6685 226.849 89.0423L228.438 115.826V116.785C228.438 116.785 228.438 116.785 228.438 117.034C228.438 117.283 228.186 117.389 228.186 117.496Z"
                        fill="#273E40"/>
                    <path
                        d="M3.90039 93.376C13.5449 73.8829 21.4598 53.6071 27.5569 32.7745H38.789C32.8535 53.5567 25.1951 73.825 15.8912 93.376H3.90039ZM76.4948 5.81283L72.5582 18.6721H120.196L124.133 5.81283H76.4948ZM39.9449 94.6195H53.3801C61.8068 80.6602 68.4887 65.7511 73.2803 50.2162H61.3259C56.3621 65.8912 49.1372 80.785 39.8726 94.4419L39.9449 94.6195ZM63.3845 31.5313L59.4116 44.6035H82.2011L69.5966 85.9873H61.3619L57.389 98.953H78.8423L95.384 44.6035H117.523L121.532 31.5313H63.3845ZM53.2718 41.8684L57.317 28.6183H65.66L69.6326 15.6171H61.3619L64.9736 4.35645H51.2132L47.6015 15.6171H29.7238L25.751 28.6183H43.8092L22.5005 99.0241H35.8997L48.4682 57.7468L53.1995 62.3293L58.0031 46.5574L53.2718 41.8684ZM97.334 50.6425C97.6799 65.686 95.5829 80.6875 91.1222 95.0812H103.005C107.491 80.6683 109.922 65.7127 110.228 50.6425H97.334ZM159.924 4.85376H145.297L145.694 27.5527H160.358L159.924 4.85376ZM129.334 34.6573L125.108 48.5821H135.184L119.835 99.0241L145.731 89.9305L150.462 74.3359L140.132 77.8882L153.315 34.6216L129.334 34.6573ZM162.164 98.953L180.041 72.2047H165.595L147.536 98.953H162.164ZM179.283 8.22839L162.633 62.791H215.363L231.977 8.22839H179.283ZM205.72 49.186H180.619L188.926 21.798H214.208L205.865 49.186M192.068 72.0979L193.657 98.8465H208.104L206.479 72.0979H192.068Z"
                        fill="#B5EAEE"/>
                </g>
                <defs>
                    <clipPath id="clip0_96_2003">
                        <rect width="252" height="120" fill="white" transform="translate(0 0.660156)"/>
                    </clipPath>
                </defs>
            </svg>