<svg width="236" height="121" viewBox="0 0 236 121" fill="none" xmlns="http://www.w3.org/2000/svg">
<path d="M6.08203 70.1108H12.7477V102.795H6.08203V70.1108Z" fill="#B5EAEE"/>
<path d="M16.6138 91.5962C16.6094 89.2486 17.3015 86.9524 18.6026 84.9983C19.9037 83.0442 21.7552 81.5199 23.9228 80.6185C26.0904 79.7171 28.4767 79.479 30.7798 79.9343C33.0828 80.3896 35.1991 81.5178 36.8605 83.1764C38.5221 84.8347 39.6544 86.9489 40.1139 89.251C40.5737 91.5531 40.34 93.9399 39.4426 96.1093C38.5452 98.2785 37.0245 100.133 35.0727 101.438C33.1212 102.743 30.8264 103.439 28.4788 103.439C26.9174 103.457 25.3685 103.163 23.9224 102.574C22.4763 101.986 21.1622 101.114 20.0572 100.011C18.9521 98.9084 18.0784 97.5959 17.4871 96.1507C16.8958 94.7058 16.5989 93.1573 16.6138 91.5962ZM33.6334 91.5962C33.6073 90.5827 33.2828 89.5995 32.7007 88.7696C32.1186 87.9395 31.3047 87.2997 30.3607 86.9298C29.4167 86.5599 28.3847 86.4769 27.3939 86.6905C26.4028 86.9042 25.4969 87.4053 24.7892 88.1312C24.0817 88.8571 23.6038 89.7757 23.4154 90.7719C23.227 91.7679 23.3366 92.7976 23.7304 93.7317C24.1242 94.6658 24.7847 95.4632 25.6292 96.0239C26.4739 96.5846 27.4649 96.8839 28.4788 96.8842C29.1722 96.9037 29.8624 96.7792 30.5054 96.5185C31.1485 96.2578 31.7306 95.8667 32.2151 95.3698C32.6993 94.8729 33.0755 94.2811 33.3195 93.6317C33.5638 92.982 33.6706 92.2891 33.6334 91.5962Z" fill="#B5EAEE"/>
<path d="M67.1408 80.398V101.684C67.1408 109.216 61.2528 112.393 55.2982 112.393C53.2043 112.549 51.1079 112.126 49.2384 111.169C47.369 110.213 45.7989 108.761 44.6999 106.972L50.4323 103.661C50.8871 104.578 51.6069 105.337 52.4982 105.84C53.3895 106.343 54.4114 106.567 55.4316 106.483C56.1027 106.595 56.7907 106.551 57.4424 106.355C58.0942 106.159 58.6921 105.816 59.1902 105.352C59.6881 104.888 60.073 104.316 60.3151 103.68C60.5573 103.044 60.65 102.361 60.5862 101.684V99.6173C59.8027 100.582 58.8027 101.347 57.6679 101.853C56.533 102.359 55.2949 102.59 54.054 102.528C51.0368 102.528 48.1434 101.33 46.0097 99.1961C43.8763 97.0627 42.6777 94.1691 42.6777 91.1519C42.6777 88.1347 43.8763 85.2413 46.0097 83.1079C48.1434 80.9745 51.0368 79.7759 54.054 79.7759C55.2942 79.7192 56.5304 79.9528 57.6646 80.458C58.7987 80.9634 59.7991 81.7265 60.5862 82.6865V80.4646L67.1408 80.398ZM60.5862 91.1519C60.6307 90.0714 60.3507 89.0023 59.7827 88.0818C59.2144 87.1616 58.3841 86.4321 57.3982 85.9877C56.4123 85.543 55.3159 85.4034 54.25 85.587C53.1841 85.7703 52.1975 86.2684 51.417 87.0168C50.6363 87.7655 50.0975 88.7305 49.8697 89.7877C49.6417 90.8448 49.7354 91.9463 50.1384 92.9498C50.5415 93.9535 51.2354 94.8136 52.1311 95.4197C53.0269 96.026 54.0834 96.3503 55.1648 96.3512C55.8709 96.4011 56.5794 96.3027 57.2448 96.062C57.9104 95.8213 58.5182 95.4441 59.029 94.9543C59.5396 94.4644 59.9422 93.8728 60.2104 93.218C60.4787 92.5632 60.6067 91.8594 60.5862 91.1519Z" fill="#B5EAEE"/>
<path d="M70.9849 91.5962C70.9804 89.2486 71.6727 86.9524 72.9736 84.9983C74.2748 83.0442 76.1263 81.5199 78.2939 80.6185C80.4614 79.7171 82.8477 79.479 85.1508 79.9343C87.4539 80.3896 89.5701 81.5178 91.2317 83.1764C92.8932 84.8347 94.0254 86.9489 94.4852 89.251C94.9447 91.5531 94.711 93.9399 93.8136 96.1093C92.9162 98.2785 91.3955 100.133 89.444 101.438C87.4922 102.743 85.1974 103.439 82.8499 103.439C81.2887 103.457 79.7395 103.163 78.2934 102.574C76.8473 101.986 75.5332 101.114 74.4282 100.011C73.3233 98.9084 72.4494 97.5959 71.8581 96.1507C71.2668 94.7058 70.9699 93.1573 70.9849 91.5962ZM88.0047 91.5962C87.9783 90.5827 87.6539 89.5995 87.0717 88.7696C86.4896 87.9395 85.6757 87.2997 84.7317 86.9298C83.788 86.5599 82.756 86.4769 81.7649 86.6905C80.7739 86.9042 79.868 87.4053 79.1602 88.1312C78.4527 88.8571 77.9748 89.7757 77.7863 90.7719C77.5981 91.7679 77.7077 92.7976 78.1014 93.7317C78.4953 94.6658 79.1557 95.4632 80.0002 96.0239C80.8449 96.5846 81.836 96.8839 82.8499 96.8842C83.5397 96.8973 84.2249 96.7684 84.8628 96.5049C85.5004 96.2413 86.0772 95.8493 86.5567 95.3531C87.0362 94.8571 87.4082 94.2672 87.6499 93.6209C87.8913 92.9745 87.9969 92.2851 87.9602 91.5962H88.0047Z" fill="#B5EAEE"/>
<path d="M97.8027 74.3988C97.8027 73.599 98.0399 72.8171 98.4841 72.1522C98.9286 71.4873 99.5601 70.9689 100.299 70.6628C101.038 70.3567 101.851 70.2767 102.635 70.4327C103.42 70.5887 104.14 70.9739 104.706 71.5393C105.272 72.1049 105.657 72.8254 105.813 73.6099C105.969 74.3943 105.889 75.2075 105.583 75.9463C105.277 76.6852 104.758 77.3169 104.093 77.7612C103.428 78.2054 102.646 78.4426 101.846 78.4426C100.776 78.4369 99.7507 78.0089 98.9936 77.2517C98.2364 76.4948 97.8086 75.4696 97.8027 74.3988ZM98.4914 80.3979H105.157V102.795H98.4914V80.3979Z" fill="#B5EAEE"/>
<path d="M134.22 91.5963C134.3 93.0768 134.088 94.5587 133.594 95.9566C133.099 97.3545 132.334 98.6408 131.34 99.7415C130.347 100.842 129.146 101.736 127.806 102.37C126.466 103.005 125.013 103.368 123.532 103.439C122.289 103.499 121.048 103.285 119.896 102.813C118.744 102.341 117.71 101.622 116.867 100.706V111.816H110.201V80.398H116.867V82.5088C117.71 81.5935 118.744 80.8745 119.896 80.4022C121.048 79.93 122.289 79.7163 123.532 79.7759C125.012 79.8469 126.462 80.2095 127.8 80.8427C129.139 81.4761 130.339 82.3674 131.332 83.4658C132.325 84.5641 133.091 85.8476 133.587 87.2429C134.083 88.6382 134.298 90.1177 134.22 91.5963ZM127.554 91.5963C127.528 90.5535 127.196 89.5413 126.6 88.685C126.004 87.829 125.17 87.1662 124.201 86.7794C123.233 86.3923 122.172 86.298 121.15 86.5081C120.128 86.718 119.19 87.2232 118.452 87.9608C117.715 88.6984 117.21 89.6361 117 90.658C116.79 91.6799 116.884 92.7408 117.271 93.7095C117.658 94.6782 118.321 95.5123 119.177 96.1081C120.033 96.7041 121.045 97.0359 122.088 97.0622C122.816 97.1086 123.545 96.9985 124.227 96.7396C124.909 96.4806 125.527 96.0787 126.041 95.561C126.554 95.0432 126.951 94.4215 127.204 93.7377C127.458 93.054 127.562 92.3239 127.51 91.5963H127.554Z" fill="#B5EAEE"/>
<path d="M154.972 96.0846C154.972 101.239 150.528 103.439 145.64 103.439C143.688 103.612 141.728 103.196 140.013 102.246C138.299 101.296 136.908 99.854 136.02 98.1065L141.841 94.7959C142.077 95.6041 142.583 96.3072 143.274 96.7881C143.965 97.269 144.8 97.4992 145.64 97.4399C147.262 97.4399 148.062 96.9288 148.062 96.0401C148.062 93.5737 136.953 94.8848 136.953 87.1526C136.953 82.2643 141.085 79.798 145.84 79.798C147.595 79.7448 149.332 80.1615 150.871 81.0055C152.41 81.8493 153.696 83.0895 154.595 84.5973L148.751 87.6636C148.493 87.0768 148.07 86.5775 147.533 86.2265C146.997 85.8754 146.37 85.6876 145.729 85.686C144.574 85.686 143.863 86.1305 143.863 86.9526C143.952 89.5076 154.972 87.7968 154.972 96.0846Z" fill="#B5EAEE"/>
<path d="M179.502 80.3979V102.795H172.836V100.706C172.061 101.634 171.077 102.365 169.965 102.841C168.853 103.316 167.644 103.521 166.437 103.439C161.993 103.439 158.061 100.217 158.061 94.1516V80.3979H164.726V93.174C164.668 93.7184 164.731 94.269 164.912 94.786C165.093 95.3029 165.386 95.773 165.771 96.1624C166.156 96.5518 166.623 96.8504 167.138 97.0368C167.653 97.2234 168.203 97.2925 168.748 97.2401C171.192 97.2401 172.903 95.818 172.903 92.6408V80.3979H179.502Z" fill="#B5EAEE"/>
<path d="M218.029 89.0631V102.794H211.363V89.641C211.363 87.4191 210.275 85.9525 208.142 85.9525C206.009 85.9525 204.631 87.5301 204.631 90.1741V102.794H197.966V89.641C197.966 87.4191 196.899 85.9525 194.744 85.9525C192.589 85.9525 191.255 87.5301 191.255 90.1741V102.794H184.59V80.3979H191.255V82.4643C191.952 81.5516 192.866 80.8276 193.914 80.3581C194.961 79.8885 196.11 79.6883 197.255 79.7758C198.404 79.7198 199.549 79.9628 200.577 80.4805C201.605 80.9984 202.481 81.7737 203.12 82.7309C203.864 81.7301 204.849 80.9341 205.984 80.4174C207.118 79.9007 208.365 79.6798 209.608 79.7758C214.674 79.7758 218.029 83.464 218.029 89.0631Z" fill="#B5EAEE"/>
<path d="M223.717 80.2647C226.466 80.2647 228.694 78.0362 228.694 75.2875C228.694 72.5388 226.466 70.3105 223.717 70.3105C220.969 70.3105 218.74 72.5388 218.74 75.2875C218.74 78.0362 220.969 80.2647 223.717 80.2647Z" fill="#B5EAEE"/>
<path d="M81.5167 53.1578C94.3892 53.1578 104.824 42.7225 104.824 29.8501C104.824 16.9777 94.3892 6.54248 81.5167 6.54248C68.6443 6.54248 58.209 16.9777 58.209 29.8501C58.209 42.7225 68.6443 53.1578 81.5167 53.1578Z" fill="#B5EAEE"/>
<path d="M133.62 53.1578C146.493 53.1578 156.928 42.7225 156.928 29.8501C156.928 16.9777 146.493 6.54248 133.62 6.54248C120.748 6.54248 110.312 16.9777 110.312 29.8501C110.312 42.7225 120.748 53.1578 133.62 53.1578Z" fill="#B5EAEE"/>
<path d="M52.72 6.54248H6.12695V53.1355H52.72V6.54248Z" fill="#B5EAEE"/>
</svg>
