<svg width="477" height="121" viewBox="0 0 477 121" fill="none" xmlns="http://www.w3.org/2000/svg">
<path d="M12.0586 111.96H114.659V9.36035H12.0586V111.96ZM94.9107 50.7883H73.2307V29.1084H94.9107V50.7883ZM31.8026 29.1084H53.4947V70.5324H94.9107V92.2124H31.8026V29.1084ZM181.471 9.36035C171.324 9.36035 161.406 12.3691 152.97 18.006C144.533 23.6429 137.958 31.6549 134.075 41.0288C130.193 50.4028 129.177 60.7172 131.156 70.6684C133.136 80.6196 138.021 89.7604 145.196 96.9348C152.37 104.11 161.511 108.995 171.462 110.975C181.414 112.954 191.728 111.938 201.102 108.056C210.476 104.173 218.488 97.5976 224.125 89.1612C229.762 80.7248 232.771 70.8064 232.771 60.6604C232.755 47.0596 227.345 34.0205 217.727 24.4034C208.11 14.7862 195.071 9.37623 181.471 9.36035ZM181.471 92.2124C175.23 92.2124 169.13 90.362 163.941 86.8948C158.753 83.428 154.708 78.5004 152.32 72.7348C149.932 66.9696 149.307 60.6255 150.525 54.5047C151.742 48.3843 154.747 42.7624 159.16 38.3497C163.573 33.9371 169.195 30.9321 175.315 29.7146C181.435 28.4972 187.779 29.122 193.545 31.5101C199.31 33.8982 204.238 37.9423 207.705 43.1311C211.172 48.3195 213.023 54.42 213.023 60.6604C213.01 69.0247 209.681 77.0428 203.767 82.9572C197.853 88.8716 189.835 92.1996 181.471 92.2124ZM416.347 9.36035C406.199 9.35959 396.281 12.3676 387.845 18.004C379.408 23.6405 372.832 31.6522 368.949 41.026C365.065 50.3996 364.049 60.7148 366.028 70.666C368.007 80.6176 372.892 89.7588 380.067 96.9336C387.241 104.108 396.382 108.995 406.335 110.974C416.283 112.954 426.599 111.938 435.975 108.056C445.347 104.173 453.359 97.598 458.995 89.1616C464.635 80.7252 467.643 70.8068 467.643 60.6604C467.627 47.0603 462.219 34.0218 452.603 24.4048C442.987 14.7877 429.947 9.37731 416.347 9.36035ZM416.347 92.2124C410.107 92.2132 404.007 90.3632 398.816 86.8968C393.627 83.4304 389.582 78.5028 387.193 72.7376C384.805 66.9724 384.179 60.628 385.396 54.5072C386.613 48.3868 389.618 42.7644 394.031 38.3512C398.443 33.9381 404.067 30.9327 410.187 29.7149C416.307 28.4972 422.651 29.1218 428.415 31.5098C434.183 33.8977 439.111 37.9418 442.579 43.1308C446.043 48.3196 447.895 54.42 447.895 60.6604C447.883 69.0239 444.555 77.0412 438.639 82.9556C432.727 88.8699 424.711 92.1988 416.347 92.2124ZM298.907 9.36035C288.76 9.36035 278.842 12.3691 270.406 18.006C261.969 23.6429 255.394 31.6549 251.511 41.0288C247.629 50.4028 246.613 60.7172 248.592 70.6684C250.572 80.6196 255.457 89.7604 262.632 96.9348C269.806 104.11 278.947 108.995 288.898 110.975C298.849 112.954 309.164 111.938 318.538 108.056C327.912 104.173 335.924 97.5976 341.561 89.1612C347.198 80.7248 350.207 70.8064 350.207 60.6604C350.191 47.0596 344.781 34.0205 335.163 24.4034C325.546 14.7862 312.507 9.37623 298.907 9.36035ZM298.907 92.2124C293.092 92.2152 287.391 90.6116 282.43 87.5784C277.47 84.5452 273.444 80.2008 270.797 75.024C268.151 69.8472 266.986 64.0396 267.431 58.2428C267.877 52.4456 269.915 46.8844 273.322 42.1728C276.729 37.4614 281.371 33.7828 286.737 31.5432C292.102 29.3036 297.982 28.59 303.727 29.4813C309.473 30.3726 314.86 32.8341 319.295 36.594C323.73 40.354 327.039 45.2663 328.859 50.7883H298.907V70.5324H328.859C326.775 76.8335 322.761 82.3192 317.384 86.2104C312.008 90.102 305.543 92.2016 298.907 92.2124Z" fill="#B5EAEE"/>
</svg>
