<svg width="81" height="90" viewBox="0 0 81 90" fill="none" xmlns="http://www.w3.org/2000/svg">
<path d="M38.6011 89.1159C59.9199 89.1159 77.2022 71.8336 77.2022 50.5148C77.2022 29.196 59.9199 11.9137 38.6011 11.9137C17.2823 11.9137 0 29.196 0 50.5148C0 71.8336 17.2823 89.1159 38.6011 89.1159Z" fill="url(#paint0_linear_96_2468)"/>
<mask id="mask0_96_2468" style="mask-type:luminance" maskUnits="userSpaceOnUse" x="3" y="16" width="71" height="72">
<path d="M38.7521 87.1798C58.1738 87.1798 73.9182 71.4354 73.9182 52.0137C73.9182 32.5919 58.1738 16.8475 38.7521 16.8475C19.3304 16.8475 3.58594 32.5919 3.58594 52.0137C3.58594 71.4354 19.3304 87.1798 38.7521 87.1798Z" fill="white"/>
</mask>
<g mask="url(#mask0_96_2468)">
<path d="M18.8668 38.4262C18.8668 38.4262 15.635 37.8449 12.8145 39.5041C12.8145 39.5041 13.645 37.282 16.8203 37.7977C18.4561 38.0628 18.8668 38.4262 18.8668 38.4262Z" fill="#98B770"/>
</g>
<mask id="mask1_96_2468" style="mask-type:luminance" maskUnits="userSpaceOnUse" x="3" y="16" width="71" height="72">
<path d="M38.7521 87.1798C58.1738 87.1798 73.9182 71.4354 73.9182 52.0137C73.9182 32.5919 58.1738 16.8475 38.7521 16.8475C19.3304 16.8475 3.58594 32.5919 3.58594 52.0137C3.58594 71.4354 19.3304 87.1798 38.7521 87.1798Z" fill="white"/>
</mask>
<g mask="url(#mask1_96_2468)">
<path d="M62.027 30.1355C62.027 30.1355 48.9126 54.1048 49.869 58.2291C50.8253 62.3535 47.7279 88.786 47.7279 88.786L24.5756 86.4412L23.8538 69.1356C23.8538 69.1356 22.321 64.4865 23.0319 63.0643C23.7427 61.642 24.8543 55.764 24.8543 55.764L31.7991 41.3532L48.6321 25.2808L52.8473 25.6307L52.4992 26.0413L57.5872 31.2558L62.027 30.1355Z" fill="#E8EDC8"/>
</g>
<mask id="mask2_96_2468" style="mask-type:luminance" maskUnits="userSpaceOnUse" x="3" y="16" width="71" height="72">
<path d="M38.7521 87.1798C58.1738 87.1798 73.9182 71.4354 73.9182 52.0137C73.9182 32.5919 58.1738 16.8475 38.7521 16.8475C19.3304 16.8475 3.58594 32.5919 3.58594 52.0137C3.58594 71.4354 19.3304 87.1798 38.7521 87.1798Z" fill="white"/>
</mask>
<g mask="url(#mask2_96_2468)">
<path d="M31.1587 46.1972C31.1458 42.4897 27.472 25.4873 27.472 25.4873C27.472 25.4873 26.8502 26.3092 23.6454 27.036C20.44 27.7628 18.0541 28.5964 18.0541 28.5964C17.5324 34.0005 15.5847 37.781 17.1014 40.0381L11.3867 77.1359L26.9926 86.7337C26.9926 86.7337 31.2538 72.9189 31.1587 46.1972Z" fill="#B6CC92"/>
</g>
<mask id="mask3_96_2468" style="mask-type:luminance" maskUnits="userSpaceOnUse" x="3" y="16" width="71" height="72">
<path d="M38.7521 87.1798C58.1738 87.1798 73.9182 71.4354 73.9182 52.0137C73.9182 32.5919 58.1738 16.8475 38.7521 16.8475C19.3304 16.8475 3.58594 32.5919 3.58594 52.0137C3.58594 71.4354 19.3304 87.1798 38.7521 87.1798Z" fill="white"/>
</mask>
<g mask="url(#mask3_96_2468)">
<path d="M58.7257 40.2148C56.5454 44.8603 60.7771 81.2424 60.7771 81.2424L47.1484 87.3714C47.1484 87.3714 41.9799 62.0701 52.3732 25.8359C52.3732 25.8359 54.6192 27.1066 58.0284 27.7701L63.9371 29.5735L58.7257 40.2148Z" fill="#B6CC92"/>
</g>
<mask id="mask4_96_2468" style="mask-type:luminance" maskUnits="userSpaceOnUse" x="3" y="16" width="71" height="72">
<path d="M38.7521 87.1798C58.1738 87.1798 73.9182 71.4354 73.9182 52.0137C73.9182 32.5919 58.1738 16.8475 38.7521 16.8475C19.3304 16.8475 3.58594 32.5919 3.58594 52.0137C3.58594 71.4354 19.3304 87.1798 38.7521 87.1798Z" fill="white"/>
</mask>
<g mask="url(#mask4_96_2468)">
<path d="M63.2618 30.1382C36.494 23.0166 18.0547 28.5963 18.0547 28.5963C18.0547 28.5963 12.0441 77.242 11.332 78.0222C11.332 78.0222 20.5456 88.2633 33.4408 89.5818C46.3361 90.9003 58.0491 82.5805 58.0491 82.5805L63.2618 30.1382Z" fill="url(#paint1_linear_96_2468)"/>
</g>
<mask id="mask5_96_2468" style="mask-type:luminance" maskUnits="userSpaceOnUse" x="3" y="16" width="71" height="72">
<path d="M38.7521 87.1798C58.1738 87.1798 73.9182 71.4354 73.9182 52.0137C73.9182 32.5919 58.1738 16.8475 38.7521 16.8475C19.3304 16.8475 3.58594 32.5919 3.58594 52.0137C3.58594 71.4354 19.3304 87.1798 38.7521 87.1798Z" fill="white"/>
</mask>
<g mask="url(#mask5_96_2468)">
<path d="M27.4517 24.9687L29.7462 23.6109L34.5806 33.8937C34.5806 33.8937 34.5457 38.7368 36.8481 43.7935L32.8896 49.7427C32.8896 49.7421 25.3579 38.7288 27.4517 24.9687Z" fill="#98B770"/>
</g>
<mask id="mask6_96_2468" style="mask-type:luminance" maskUnits="userSpaceOnUse" x="3" y="16" width="71" height="72">
<path d="M38.7521 87.1798C58.1738 87.1798 73.9182 71.4354 73.9182 52.0137C73.9182 32.5919 58.1738 16.8475 38.7521 16.8475C19.3304 16.8475 3.58594 32.5919 3.58594 52.0137C3.58594 71.4354 19.3304 87.1798 38.7521 87.1798Z" fill="white"/>
</mask>
<g mask="url(#mask6_96_2468)">
<path opacity="0.57" d="M37.0379 41.2107L36.9268 42.1063L31.7744 47.8603L31.0592 48.2936L30.7051 46.8407C31.1249 46.365 34.8018 42.8386 37.0379 41.2107Z" fill="#A9D893"/>
</g>
<mask id="mask7_96_2468" style="mask-type:luminance" maskUnits="userSpaceOnUse" x="3" y="16" width="71" height="72">
<path d="M38.7521 87.1798C58.1738 87.1798 73.9182 71.4354 73.9182 52.0137C73.9182 32.5919 58.1738 16.8475 38.7521 16.8475C19.3304 16.8475 3.58594 32.5919 3.58594 52.0137C3.58594 71.4354 19.3304 87.1798 38.7521 87.1798Z" fill="white"/>
</mask>
<g mask="url(#mask7_96_2468)">
<path d="M46.2751 29.8779C46.2751 29.8779 39.6225 38.8963 36.1145 42.7787C32.6064 46.6612 30.4102 48.6365 30.4102 48.6365L32.4389 55.8281C32.4389 55.8281 46.1548 46.6452 49.8752 37.506C53.2998 29.0935 53.1807 25.2791 53.1807 25.2791L49.0091 23.504L46.2751 29.8779Z" fill="#98B770"/>
</g>
<mask id="mask8_96_2468" style="mask-type:luminance" maskUnits="userSpaceOnUse" x="3" y="16" width="71" height="72">
<path d="M38.7521 87.1798C58.1738 87.1798 73.9182 71.4354 73.9182 52.0137C73.9182 32.5919 58.1738 16.8475 38.7521 16.8475C19.3304 16.8475 3.58594 32.5919 3.58594 52.0137C3.58594 71.4354 19.3304 87.1798 38.7521 87.1798Z" fill="white"/>
</mask>
<g mask="url(#mask8_96_2468)">
<path d="M22.6841 40.7625C22.6841 40.7625 24.8245 49.504 24.5642 56.0467C24.4506 58.9047 24.5544 72.6225 22.9529 75.9077C20.0955 81.7691 12.7051 77.9444 12.7051 77.9444L12.7916 42.5763L22.6841 40.7625Z" fill="url(#paint2_linear_96_2468)"/>
</g>
<mask id="mask9_96_2468" style="mask-type:luminance" maskUnits="userSpaceOnUse" x="3" y="16" width="71" height="72">
<path d="M38.7521 87.1798C58.1738 87.1798 73.9182 71.4354 73.9182 52.0137C73.9182 32.5919 58.1738 16.8475 38.7521 16.8475C19.3304 16.8475 3.58594 32.5919 3.58594 52.0137C3.58594 71.4354 19.3304 87.1798 38.7521 87.1798Z" fill="white"/>
</mask>
<g mask="url(#mask9_96_2468)">
<path d="M51.3287 57.4619C51.3287 57.4619 48.3584 83.6833 57.3632 84.7544C57.3632 84.7544 64.58 77.6107 64.58 77.391C64.58 77.1712 60.7337 61.8673 60.7337 61.8673L53.792 55.4473L51.8136 56.6019L51.3287 57.4619Z" fill="url(#paint3_linear_96_2468)"/>
</g>
<mask id="mask10_96_2468" style="mask-type:luminance" maskUnits="userSpaceOnUse" x="3" y="16" width="71" height="72">
<path d="M38.7521 87.1798C58.1738 87.1798 73.9182 71.4354 73.9182 52.0137C73.9182 32.5919 58.1738 16.8475 38.7521 16.8475C19.3304 16.8475 3.58594 32.5919 3.58594 52.0137C3.58594 71.4354 19.3304 87.1798 38.7521 87.1798Z" fill="white"/>
</mask>
<g mask="url(#mask10_96_2468)">
<path d="M45.1353 57.755L45.1267 57.7709L44.7031 58.5155C44.6896 58.5272 44.6749 58.5382 44.6602 58.5499C43.9893 59.0759 42.6763 59.4387 41.1534 59.4608C41.1037 59.4614 41.0552 59.4614 41.0054 59.4614C39.4199 59.4614 38.0425 59.0919 37.3507 58.5499C37.3298 58.5333 37.309 58.5167 37.2899 58.5002C37.0303 58.2804 36.8824 58.0343 36.8762 57.7734L36.875 57.7703C36.875 57.7593 36.8756 57.7544 36.8756 57.7544H45.1353V57.755Z" fill="#C49A91"/>
</g>
<mask id="mask11_96_2468" style="mask-type:luminance" maskUnits="userSpaceOnUse" x="3" y="16" width="71" height="72">
<path d="M38.7521 87.1798C58.1738 87.1798 73.9182 71.4354 73.9182 52.0137C73.9182 32.5919 58.1738 16.8475 38.7521 16.8475C19.3304 16.8475 3.58594 32.5919 3.58594 52.0137C3.58594 71.4354 19.3304 87.1798 38.7521 87.1798Z" fill="white"/>
</mask>
<g mask="url(#mask11_96_2468)">
<path d="M45.1324 57.8323C45.1066 58.0779 44.955 58.308 44.7045 58.5155C44.691 58.5272 44.6763 58.5382 44.6616 58.5499C43.9906 59.0759 42.6777 59.4387 41.1548 59.4608C41.105 59.4614 41.0566 59.4614 41.0068 59.4614C39.4213 59.4614 38.0439 59.0919 37.3521 58.5499C37.3312 58.5333 37.3104 58.5167 37.2913 58.5002L36.8776 57.7734L36.8764 57.7703L36.8672 57.7544H45.1268C45.1268 57.7544 45.1274 57.7593 45.1281 57.7703C45.1287 57.7838 45.1305 57.8041 45.1324 57.8323Z" fill="#C49A91"/>
</g>
<mask id="mask12_96_2468" style="mask-type:luminance" maskUnits="userSpaceOnUse" x="3" y="16" width="71" height="72">
<path d="M38.7521 87.1798C58.1738 87.1798 73.9182 71.4354 73.9182 52.0137C73.9182 32.5919 58.1738 16.8475 38.7521 16.8475C19.3304 16.8475 3.58594 32.5919 3.58594 52.0137C3.58594 71.4354 19.3304 87.1798 38.7521 87.1798Z" fill="white"/>
</mask>
<g mask="url(#mask12_96_2468)">
<path d="M27.875 44.7992C27.875 44.7992 30.4426 45.4468 30.9877 48.3029L32.0423 48.1844C32.0423 48.1844 31.1571 45.0367 28.6331 43.9939" fill="#A57A76"/>
</g>
<mask id="mask13_96_2468" style="mask-type:luminance" maskUnits="userSpaceOnUse" x="3" y="16" width="71" height="72">
<path d="M38.7521 87.1798C58.1738 87.1798 73.9182 71.4354 73.9182 52.0137C73.9182 32.5919 58.1738 16.8475 38.7521 16.8475C19.3304 16.8475 3.58594 32.5919 3.58594 52.0137C3.58594 71.4354 19.3304 87.1798 38.7521 87.1798Z" fill="white"/>
</mask>
<g mask="url(#mask13_96_2468)">
<path d="M59.6743 54.7609L59.6719 54.5933C59.6725 54.5927 59.6805 54.6541 59.6743 54.7609Z" fill="#98B770"/>
</g>
<mask id="mask14_96_2468" style="mask-type:luminance" maskUnits="userSpaceOnUse" x="3" y="16" width="71" height="72">
<path d="M38.7521 87.1798C58.1738 87.1798 73.9182 71.4354 73.9182 52.0137C73.9182 32.5919 58.1738 16.8475 38.7521 16.8475C19.3304 16.8475 3.58594 32.5919 3.58594 52.0137C3.58594 71.4354 19.3304 87.1798 38.7521 87.1798Z" fill="white"/>
</mask>
<g mask="url(#mask14_96_2468)">
<path d="M24.5625 50.3864C24.5625 50.3864 26.032 48.0164 28.5683 47.6843C31.1047 47.3522 34.8257 48.3718 34.8969 50.3864C34.9681 52.4009 28.5211 52.3297 26.9331 51.8559C25.3451 51.382 24.5625 50.3864 24.5625 50.3864Z" fill="#B58A83"/>
<path d="M36.9367 53.501C36.9367 58.5503 30.4664 59.1813 29.7316 59.1813C28.9969 59.1813 22.9531 59.514 22.9531 53.8017C22.9531 52.6355 23.222 51.7509 23.6504 51.0813C23.7173 50.9757 23.7873 50.8769 23.8622 50.7823C24.0163 50.5859 24.1857 50.4116 24.3668 50.2557C26.2647 48.626 29.4001 49.1324 29.4001 49.1324C29.4001 49.1324 36.9367 48.4529 36.9367 53.501Z" fill="#B58A83"/>
<path d="M36.0494 55.709C36.0494 55.709 37.2937 54.5004 37.7442 52.6872C38.1948 50.8739 40.8852 50.0563 40.9913 49.4633C41.0975 48.8704 39.6287 48.6574 38.9412 49.2025C38.2537 49.7475 37.8676 50.3552 36.8081 50.7192C36.1857 50.9328 35.834 50.7567 35.834 50.7567L36.0494 55.709Z" fill="#B58A83"/>
<path d="M29.9809 49.0568C30.6942 49.0568 31.2724 48.6701 31.2724 48.1931C31.2724 47.7162 30.6942 47.3295 29.9809 47.3295C29.2677 47.3295 28.6895 47.7162 28.6895 48.1931C28.6895 48.6701 29.2677 49.0568 29.9809 49.0568Z" fill="#B58A83"/>
<path d="M24.9941 50.8127C24.9941 50.8127 26.2396 52.7272 30.1834 52.4086C33.5632 52.1348 34.7583 50.2811 34.7583 50.2811C34.7583 50.2811 32.395 52.2392 29.5586 52.133C26.7214 52.0268 24.9941 50.8127 24.9941 50.8127Z" fill="#936763"/>
<path d="M28.6895 48.3884C28.6895 48.3884 28.7226 49.244 29.9116 49.2238C31.1006 49.2035 31.2178 48.2699 31.2178 48.2699C31.2178 48.2699 30.8464 49.0126 30.0172 49.0126C29.0123 49.0126 28.6895 48.3884 28.6895 48.3884Z" fill="#936763"/>
<path d="M40.0109 49.6291C40.4096 49.6291 40.7328 49.4914 40.7328 49.3216C40.7328 49.1517 40.4096 49.014 40.0109 49.014C39.6123 49.014 39.2891 49.1517 39.2891 49.3216C39.2891 49.4914 39.6123 49.6291 40.0109 49.6291Z" fill="#936763"/>
<path d="M25.0508 52.5695C25.0508 52.5695 26.0133 53.2189 26.1784 52.1883C26.1784 52.1883 25.8224 52.5609 25.5725 52.6309C25.3221 52.7015 25.0508 52.5695 25.0508 52.5695Z" fill="#936763"/>
<path d="M24.9909 52.5394C24.3114 52.2595 23.8584 51.5069 23.6484 51.0803C23.7153 50.9747 23.7853 50.8759 23.8602 50.7814C24.0143 50.585 24.1837 50.4106 24.3648 50.2547C24.4753 50.8237 24.5465 51.8826 24.7644 52.0545C25.1081 52.3227 24.9909 52.5394 24.9909 52.5394Z" fill="#936763"/>
<path d="M26.2152 52.1347C26.2152 52.1347 26.1127 52.3035 25.9273 52.4459C25.8506 52.5055 25.7604 52.5607 25.656 52.5976C25.6554 52.5976 25.6548 52.5982 25.6542 52.5982C25.5744 52.6264 25.4878 52.6436 25.3939 52.6436C25.3233 52.6436 25.249 52.6344 25.1717 52.6111H25.1711C25.1318 52.6013 25.0919 52.5865 25.0514 52.5687C25.033 52.5607 25.0133 52.5503 24.9943 52.538C24.6843 52.3416 24.2878 51.6161 23.9821 50.6376C23.6218 49.4873 23.3867 47.9859 23.5647 46.5784C23.5862 46.4004 23.6156 46.223 23.6512 46.0486L24.386 45.9774C24.386 45.9774 24.3222 46.3783 24.2884 46.9792C24.2424 47.8109 24.2546 49.0257 24.5763 50.0876C24.5959 50.1515 24.6162 50.2153 24.6389 50.2779C24.6763 50.3884 24.7187 50.4964 24.7647 50.602V50.6026C25.0575 51.2834 25.5154 51.8499 26.2152 52.1347Z" fill="#B58A83"/>
</g>
<mask id="mask15_96_2468" style="mask-type:luminance" maskUnits="userSpaceOnUse" x="3" y="16" width="71" height="72">
<path d="M38.7521 87.1798C58.1738 87.1798 73.9182 71.4354 73.9182 52.0137C73.9182 32.5919 58.1738 16.8475 38.7521 16.8475C19.3304 16.8475 3.58594 32.5919 3.58594 52.0137C3.58594 71.4354 19.3304 87.1798 38.7521 87.1798Z" fill="white"/>
</mask>
<g mask="url(#mask15_96_2468)">
<path opacity="0.48" d="M19.3848 41.9913C19.3848 41.9913 20.9353 42.9311 21.082 42.8335C21.2287 42.7359 22.9505 41.3929 22.9505 41.3929L22.6816 40.7625H21.3748L19.3848 41.9913Z" fill="#A9C999"/>
</g>
<mask id="mask16_96_2468" style="mask-type:luminance" maskUnits="userSpaceOnUse" x="3" y="16" width="71" height="72">
<path d="M38.7521 87.1798C58.1738 87.1798 73.9182 71.4354 73.9182 52.0137C73.9182 32.5919 58.1738 16.8475 38.7521 16.8475C19.3304 16.8475 3.58594 32.5919 3.58594 52.0137C3.58594 71.4354 19.3304 87.1798 38.7521 87.1798Z" fill="white"/>
</mask>
<g mask="url(#mask16_96_2468)">
<path opacity="0.48" d="M51.2969 57.77L56.1731 59.9564L55.404 56.6025L52.6197 55.8149L51.4841 57.0322L51.3294 57.4625L51.2969 57.77Z" fill="#A9C999"/>
</g>
<mask id="mask17_96_2468" style="mask-type:luminance" maskUnits="userSpaceOnUse" x="3" y="16" width="71" height="72">
<path d="M38.7521 87.1798C58.1738 87.1798 73.9182 71.4354 73.9182 52.0137C73.9182 32.5919 58.1738 16.8475 38.7521 16.8475C19.3304 16.8475 3.58594 32.5919 3.58594 52.0137C3.58594 71.4354 19.3304 87.1798 38.7521 87.1798Z" fill="white"/>
</mask>
<g mask="url(#mask17_96_2468)">
<path d="M31.9651 41.741C31.9325 41.8227 31.8601 41.8859 31.7772 41.9209C31.6931 41.9559 31.6011 41.9596 31.5114 41.9503C31.3304 41.9203 31.1745 41.8171 31.0505 41.6882C30.9909 41.6213 30.9332 41.5471 30.916 41.4489C30.913 41.4243 30.913 41.3985 30.9197 41.3727C30.9271 41.347 30.9424 41.323 30.9602 41.3058C30.9928 41.2727 31.0321 41.2469 31.0726 41.2266C31.2365 41.1493 31.4286 41.1432 31.59 41.2113C31.5065 41.1874 31.4188 41.1843 31.3347 41.1947C31.25 41.2039 31.1671 41.2273 31.0953 41.2684C31.0597 41.2899 31.0271 41.3144 30.9995 41.3433C30.9743 41.3691 30.9676 41.4028 30.9743 41.4403C30.9885 41.5151 31.0406 41.5863 31.0965 41.6465C31.153 41.7079 31.2193 41.7613 31.2905 41.8061C31.3617 41.8509 31.439 41.8859 31.52 41.9037C31.6011 41.9178 31.6888 41.9197 31.768 41.8926C31.8472 41.8687 31.9203 41.8153 31.9651 41.741Z" fill="#E3B19B"/>
</g>
<mask id="mask18_96_2468" style="mask-type:luminance" maskUnits="userSpaceOnUse" x="3" y="16" width="71" height="72">
<path d="M38.7521 87.1798C58.1738 87.1798 73.9182 71.4354 73.9182 52.0137C73.9182 32.5919 58.1738 16.8475 38.7521 16.8475C19.3304 16.8475 3.58594 32.5919 3.58594 52.0137C3.58594 71.4354 19.3304 87.1798 38.7521 87.1798Z" fill="white"/>
</mask>
<g mask="url(#mask18_96_2468)">
<path d="M29.7298 46.657C29.674 46.6791 29.6101 46.6766 29.5531 46.657C29.4954 46.6367 29.445 46.5993 29.4033 46.5551C29.3628 46.5091 29.3302 46.4575 29.3026 46.4041C29.2756 46.3507 29.2498 46.2979 29.2247 46.2433C29.1995 46.1893 29.1756 46.1334 29.1608 46.0726C29.1461 46.0131 29.1436 45.9419 29.1756 45.8805C29.2069 45.8197 29.2584 45.7792 29.3088 45.7455C29.3597 45.7105 29.4143 45.6841 29.4677 45.6571C29.5752 45.6092 29.674 45.5496 29.7832 45.4944C29.8127 45.4834 29.8409 45.4662 29.8845 45.4717C29.8943 45.4735 29.9048 45.4784 29.9146 45.4821C29.9232 45.487 29.93 45.4944 29.9379 45.5005C29.9502 45.514 29.96 45.5294 29.9674 45.5435C29.9956 45.6018 30.0091 45.6595 30.0233 45.7178C30.0803 45.9486 30.0951 46.2009 30.0097 46.4244C30.0417 46.3102 30.0478 46.1911 30.0398 46.0745C30.0337 45.9572 30.011 45.8424 29.9778 45.7301C29.9613 45.6743 29.9447 45.6166 29.9207 45.5681C29.9079 45.5447 29.8931 45.5257 29.8772 45.5251C29.86 45.522 29.8324 45.5343 29.8084 45.5447C29.7071 45.5975 29.6034 45.6626 29.4948 45.7123C29.442 45.7375 29.3892 45.762 29.3419 45.794C29.2946 45.8246 29.2498 45.8602 29.2259 45.9063C29.2013 45.9517 29.2013 46.0063 29.2136 46.061C29.2259 46.1156 29.2468 46.1702 29.2689 46.2249C29.3155 46.3335 29.3554 46.4458 29.4272 46.5355C29.4634 46.5797 29.5076 46.6189 29.5604 46.6423C29.6114 46.6637 29.6721 46.6723 29.7298 46.657Z" fill="#E3B19B"/>
</g>
<mask id="mask19_96_2468" style="mask-type:luminance" maskUnits="userSpaceOnUse" x="3" y="16" width="71" height="72">
<path d="M38.7521 87.1798C58.1738 87.1798 73.9182 71.4354 73.9182 52.0137C73.9182 32.5919 58.1738 16.8475 38.7521 16.8475C19.3304 16.8475 3.58594 32.5919 3.58594 52.0137C3.58594 71.4354 19.3304 87.1798 38.7521 87.1798Z" fill="white"/>
</mask>
<g mask="url(#mask19_96_2468)">
<path d="M58.9577 63.6084C58.3549 63.7748 57.3255 63.8969 55.5767 63.8558C54.6339 60.9911 53.1484 58.0263 53.1484 58.0263H53.1491C54.335 58.2374 55.5546 58.1503 56.6853 57.7544C56.6853 57.7544 58.6937 60.8462 58.7183 60.9684C58.7306 61.0254 58.8435 62.2783 58.9577 63.6084Z" fill="#E3B19B"/>
</g>
<mask id="mask20_96_2468" style="mask-type:luminance" maskUnits="userSpaceOnUse" x="3" y="16" width="71" height="72">
<path d="M38.7521 87.1798C58.1738 87.1798 73.9182 71.4354 73.9182 52.0137C73.9182 32.5919 58.1738 16.8475 38.7521 16.8475C19.3304 16.8475 3.58594 32.5919 3.58594 52.0137C3.58594 71.4354 19.3304 87.1798 38.7521 87.1798Z" fill="white"/>
</mask>
<g mask="url(#mask20_96_2468)">
<path opacity="0.42" d="M24.3838 45.9787C24.3838 45.9787 24.32 46.3795 24.2862 46.9804L23.5625 46.5796C23.584 46.4016 23.6134 46.2242 23.6491 46.0499L24.3838 45.9787Z" fill="#B58A83"/>
</g>
<mask id="mask21_96_2468" style="mask-type:luminance" maskUnits="userSpaceOnUse" x="3" y="16" width="71" height="72">
<path d="M38.7521 87.1798C58.1738 87.1798 73.9182 71.4354 73.9182 52.0137C73.9182 32.5919 58.1738 16.8475 38.7521 16.8475C19.3304 16.8475 3.58594 32.5919 3.58594 52.0137C3.58594 71.4354 19.3304 87.1798 38.7521 87.1798Z" fill="white"/>
</mask>
<g mask="url(#mask21_96_2468)">
<path d="M32.2168 42.0279C32.1314 42.3581 31.0511 42.541 30.2636 41.7167C29.476 40.8923 28.78 40.3982 28.524 40.3791C28.2674 40.3613 27.0404 40.4344 27.0404 40.4344C27.0404 40.4344 29.1832 42.4674 29.3662 43.0168C29.5491 43.5661 30.3919 45.5684 30.3188 46.2252C30.2458 46.8814 29.3846 47.0005 29.3846 47.0005C29.3846 47.0005 29.02 47.5345 28.3589 47.5775C27.6972 47.6211 27.443 47.2945 27.443 47.2945C27.443 47.2945 27.2417 47.8519 26.6377 47.7788C26.0331 47.7058 25.081 46.7899 24.3113 46.4781C23.5422 46.1669 23.1027 45.5967 22.5717 45.8183C22.0401 46.0392 20.4239 47.0005 19.6388 46.8587C19.2472 46.7875 18.6665 46.4112 18.1816 46.0497C17.6924 45.6857 17.3008 45.3382 17.3008 45.3382C17.3008 45.3382 17.3026 44.9657 17.4156 44.4402C17.5973 43.5907 18.0674 42.3428 19.2859 41.6258C19.2859 41.6258 19.3368 41.6504 19.4265 41.6841C19.6566 41.7707 20.1446 41.9211 20.6959 41.8892C21.1354 41.8634 21.6154 41.7222 22.0365 41.3392C23.188 40.2889 25.9232 38.0177 26.7046 38.0177C27.4866 38.0177 28.0661 38.604 28.4516 38.6586C28.8358 38.7138 29.6461 38.7138 30.1205 39.0441C30.595 39.3731 31.1076 40.7474 31.5655 41.0408C32.0216 41.3318 32.3015 41.6983 32.2168 42.0279Z" fill="#EDCBBC"/>
<path opacity="0.5" d="M23.8172 41.992C23.7921 42.019 24.3353 41.0995 24.9375 41.21C24.9375 41.21 24.2923 41.4807 23.8172 41.992Z" fill="#E3B19B"/>
<path opacity="0.5" d="M27.0842 40.367C27.0842 40.367 26.4618 39.3787 26.0898 39.507C26.0898 39.507 26.2544 39.2161 26.587 39.4954C26.9197 39.7746 27.0842 40.367 27.0842 40.367Z" fill="#E3B19B"/>
<path opacity="0.5" d="M27.4418 47.2945C27.4418 47.2945 27.0771 46.7568 26.7015 46.2258C26.3258 45.6948 24.9355 44.2567 24.5046 43.8264C24.0731 43.3961 23.9908 43.9546 24.3757 44.156C24.7606 44.3573 25.9876 45.4653 26.2804 45.8182C26.5732 46.1706 27.0102 46.9526 27.4418 47.2945Z" fill="#E3B19B"/>
<path opacity="0.5" d="M29.3822 47.0011C29.3822 47.0011 27.8237 44.2751 27.5917 43.9092C27.3596 43.5428 25.6698 42.2728 25.5378 41.8087C25.4058 41.3446 27.3105 43.3592 27.6893 43.8847C28.068 44.4101 29.3822 47.0011 29.3822 47.0011Z" fill="#E3B19B"/>
<path opacity="0.5" d="M20.6933 41.8886C20.0488 42.535 18.5756 44.1788 18.1797 46.0497C17.6904 45.6857 17.2988 45.3383 17.2988 45.3383C17.2988 45.3383 17.3007 44.9657 17.4136 44.4403C18.0434 43.3513 18.9089 41.8665 18.9476 41.8585C18.9684 41.8548 19.1679 41.7812 19.4245 41.6842C19.6541 41.7701 20.1421 41.9199 20.6933 41.8886Z" fill="#E3B19B"/>
<path d="M31.9679 41.8836C31.8672 41.929 31.7543 41.9481 31.6425 41.9444C31.5302 41.9395 31.4179 41.9076 31.3203 41.848C31.2215 41.7891 31.1417 41.7081 31.0711 41.6197C31.0355 41.5755 31.0072 41.5239 30.9857 41.4687C30.9649 41.4134 30.9587 41.3471 30.9802 41.287C31.0023 41.2262 31.049 41.1802 31.0993 41.1495C31.1509 41.1188 31.2049 41.0998 31.2613 41.0856C31.324 41.0728 31.3853 41.0856 31.4387 41.1071C31.4934 41.128 31.5419 41.1575 31.5879 41.1906C31.7696 41.3238 31.9151 41.4938 32.0415 41.6737C31.9685 41.5908 31.8942 41.5104 31.8138 41.4355C31.7352 41.36 31.6517 41.2876 31.5615 41.2293C31.5161 41.2004 31.4688 41.1753 31.4203 41.1575C31.3718 41.1397 31.3203 41.1317 31.2742 41.1421C31.2245 41.1556 31.1742 41.1734 31.1312 41.1998C31.0882 41.2262 31.0533 41.263 31.0379 41.3072C31.022 41.3508 31.025 41.4018 31.0422 41.449C31.06 41.4963 31.0846 41.543 31.1171 41.5853C31.1803 41.6706 31.2577 41.7492 31.3448 41.8087C31.4326 41.8689 31.537 41.9039 31.6444 41.9149C31.7518 41.9278 31.8629 41.9155 31.9679 41.8836Z" fill="#E3B19B"/>
<path d="M29.6168 46.7406C29.7475 46.716 29.8574 46.6301 29.9317 46.5257C30.0072 46.4208 30.0551 46.2968 30.0778 46.1697C30.0913 46.1065 30.0931 46.042 30.0944 45.9776C30.0925 45.9131 30.0858 45.8493 30.0723 45.7867C30.0581 45.7241 30.0379 45.6627 30.0109 45.6056C29.9974 45.5774 29.982 45.5491 29.9642 45.5258C29.9599 45.5191 29.9556 45.5154 29.9513 45.5111C29.9483 45.5074 29.9483 45.5092 29.9501 45.5092C29.9513 45.5099 29.9495 45.508 29.9538 45.5092C29.9575 45.5105 29.9624 45.508 29.9605 45.5086C29.9556 45.5111 29.9397 45.5221 29.9286 45.532C29.8298 45.6148 29.7328 45.7075 29.6297 45.7916C29.5781 45.834 29.5253 45.8751 29.4689 45.9125C29.4118 45.9487 29.3535 45.9856 29.2798 45.9978C29.2589 46.0009 29.2479 45.9997 29.2393 46.0046C29.2307 46.0095 29.2239 46.0169 29.2203 46.0298C29.2129 46.0549 29.2154 46.0875 29.2203 46.1188C29.2307 46.1814 29.2522 46.244 29.2749 46.3054C29.3197 46.4288 29.3774 46.5478 29.4357 46.6663C29.3651 46.5546 29.3019 46.438 29.2467 46.3164C29.2203 46.255 29.1963 46.193 29.1816 46.1255C29.1755 46.0918 29.1693 46.0568 29.1785 46.0175C29.1834 45.9978 29.1963 45.977 29.2166 45.9653C29.2368 45.953 29.2608 45.9537 29.2718 45.9512C29.3295 45.9389 29.3854 45.9033 29.4388 45.8683C29.4922 45.8321 29.5431 45.791 29.5935 45.7486C29.6941 45.6639 29.7868 45.5725 29.8893 45.4841C29.9041 45.473 29.9139 45.4632 29.9391 45.4515C29.9648 45.4411 29.9857 45.4608 29.9912 45.4657C29.9992 45.473 30.006 45.481 30.0109 45.4884C30.033 45.5178 30.0489 45.5485 30.0637 45.5798C30.0919 45.6424 30.1128 45.7075 30.1269 45.7744C30.1533 45.9076 30.1557 46.0463 30.1238 46.1783C30.0937 46.3103 30.0391 46.4367 29.955 46.5429C29.8703 46.6467 29.7506 46.7295 29.6168 46.7406Z" fill="#E3B19B"/>
<path d="M28.4808 47.3308C28.3777 47.3566 28.2654 47.3309 28.1721 47.2787C28.0781 47.2247 28.0045 47.1412 27.9468 47.0516C27.8903 46.9613 27.8387 46.8686 27.797 46.7698C27.7761 46.7207 27.7583 46.6698 27.7436 46.6182C27.7295 46.5648 27.7166 46.5151 27.7191 46.4525L27.7197 46.4322L27.7418 46.4279C27.9118 46.3948 28.0806 46.3518 28.2451 46.3008C28.3267 46.2738 28.409 46.245 28.479 46.202C28.4974 46.191 28.5103 46.1799 28.5262 46.1652C28.5434 46.1492 28.5612 46.1333 28.587 46.1216C28.5999 46.1161 28.6159 46.1118 28.6337 46.1142C28.6515 46.1167 28.6662 46.1265 28.6766 46.1357C28.6981 46.156 28.7079 46.1775 28.7184 46.1977C28.757 46.2812 28.7785 46.3647 28.8068 46.4476C28.8325 46.5304 28.8651 46.6108 28.889 46.6974C28.9123 46.7827 28.9222 46.8723 28.9166 46.9607C28.9105 47.0485 28.8902 47.1375 28.8424 47.2112C28.9203 47.0528 28.9056 46.868 28.8559 46.7066C28.8301 46.6256 28.7933 46.5445 28.7638 46.4623C28.7325 46.3813 28.7055 46.2966 28.6705 46.2211C28.6613 46.2033 28.6508 46.1848 28.6398 46.1756C28.6281 46.1658 28.6238 46.1658 28.6085 46.1713C28.5944 46.1781 28.579 46.191 28.5643 46.2051C28.5483 46.2204 28.5281 46.2376 28.5091 46.2493C28.4305 46.2984 28.347 46.3285 28.2629 46.3573C28.0953 46.4132 27.9235 46.45 27.751 46.4838L27.7743 46.4592C27.7725 46.5016 27.7829 46.5562 27.7958 46.6041C27.8093 46.6532 27.8259 46.7023 27.8455 46.7502C27.8848 46.8459 27.9296 46.9405 27.9818 47.0301C28.0327 47.1191 28.1009 47.1989 28.1856 47.2572C28.2709 47.3137 28.3765 47.3456 28.4808 47.3308Z" fill="#E3B19B"/>
<path d="M27.03 47.5184C27.0656 47.4969 27.0993 47.4712 27.1276 47.4417C27.1558 47.4128 27.1785 47.3766 27.1803 47.3398C27.1834 47.303 27.1607 47.2704 27.1368 47.2373C27.1116 47.2054 27.0846 47.1741 27.0557 47.144C26.9416 47.0237 26.82 46.9083 26.6973 46.7959L26.7457 46.7855C26.7249 46.8297 26.7003 46.8665 26.6721 46.9034C26.6439 46.9396 26.6119 46.9727 26.5776 47.0028C26.5426 47.0329 26.5039 47.0587 26.4628 47.0795C26.4223 47.1016 26.3775 47.1151 26.3333 47.1262L26.348 47.09C26.3928 47.1612 26.4487 47.2293 26.5082 47.2919C26.5665 47.3564 26.6322 47.4141 26.7003 47.4693C26.6242 47.4257 26.5536 47.3723 26.4867 47.314C26.4217 47.2539 26.3609 47.19 26.3075 47.1158L26.2891 47.0906L26.3216 47.0795C26.3615 47.066 26.4008 47.0525 26.437 47.0317C26.4738 47.0114 26.5076 46.9868 26.5389 46.9586C26.5702 46.931 26.599 46.9003 26.6248 46.8665C26.65 46.8334 26.6733 46.7959 26.6905 46.761L26.7089 46.7229L26.739 46.7505C26.8618 46.8659 26.9827 46.9832 27.0907 47.1133C27.1177 47.1458 27.1435 47.1796 27.1681 47.2152C27.1902 47.2502 27.2178 47.2938 27.2098 47.3429C27.2018 47.3901 27.1711 47.4263 27.1386 47.4534C27.1061 47.4816 27.0686 47.5025 27.03 47.5184Z" fill="#E3B19B"/>
</g>
<mask id="mask22_96_2468" style="mask-type:luminance" maskUnits="userSpaceOnUse" x="3" y="16" width="71" height="72">
<path d="M38.7521 87.1798C58.1738 87.1798 73.9182 71.4354 73.9182 52.0137C73.9182 32.5919 58.1738 16.8475 38.7521 16.8475C19.3304 16.8475 3.58594 32.5919 3.58594 52.0137C3.58594 71.4354 19.3304 87.1798 38.7521 87.1798Z" fill="white"/>
</mask>
<g mask="url(#mask22_96_2468)">
<path d="M6.58087 56.6637C6.83499 63.4152 6.17452 74.302 12.6467 76.2411L12.6492 76.2417C12.6492 76.2417 18.9065 75.6254 19.0962 65.8128C19.2859 56.0001 13.088 43.4179 22.684 40.7631C22.684 40.7631 22.7331 39.7755 19.2859 38.7289C17.0135 38.039 18.0557 28.5959 18.0557 28.5959C17.2314 28.4841 16.299 31.3924 15.8183 33.1277C15.4445 34.4782 14.8448 35.7586 14.0192 36.8911C13.4484 37.6737 12.8566 38.3287 12.3171 38.8566C9.23014 41.8797 7.29536 45.8873 6.79693 50.1792C6.58332 52.0176 6.48695 54.166 6.58087 56.6637Z" fill="#98B770"/>
</g>
<mask id="mask23_96_2468" style="mask-type:luminance" maskUnits="userSpaceOnUse" x="3" y="16" width="71" height="72">
<path d="M38.7521 87.1798C58.1738 87.1798 73.9182 71.4354 73.9182 52.0137C73.9182 32.5919 58.1738 16.8475 38.7521 16.8475C19.3304 16.8475 3.58594 32.5919 3.58594 52.0137C3.58594 71.4354 19.3304 87.1798 38.7521 87.1798Z" fill="white"/>
</mask>
<g mask="url(#mask23_96_2468)">
<path d="M51.19 57.5463C50.0858 56.6028 48.4702 56.4653 47.5531 56.423C46.8791 56.3917 46.4028 56.0455 45.0217 56.0227C43.6406 56 43.4798 54.9185 42.9506 55.2862C42.4215 55.6544 42.6517 57.0583 43.5031 57.4953C44.3545 57.9324 44.9008 57.3505 45.2721 57.6297C45.6435 57.909 46.474 58.3099 46.474 58.3099L50.0845 57.2252" fill="#E2B29D"/>
</g>
<mask id="mask24_96_2468" style="mask-type:luminance" maskUnits="userSpaceOnUse" x="3" y="16" width="71" height="72">
<path d="M38.7521 87.1798C58.1738 87.1798 73.9182 71.4354 73.9182 52.0137C73.9182 32.5919 58.1738 16.8475 38.7521 16.8475C19.3304 16.8475 3.58594 32.5919 3.58594 52.0137C3.58594 71.4354 19.3304 87.1798 38.7521 87.1798Z" fill="white"/>
</mask>
<g mask="url(#mask24_96_2468)">
<path d="M45.1092 59.6283C45.0895 59.8818 45.0613 60.15 45.0214 60.4269C44.9447 60.964 44.825 61.5318 44.6402 62.0775C44.5991 62.1978 44.5555 62.3169 44.5082 62.4347C44.3879 62.7404 44.2437 63.0338 44.073 63.307C44.0675 63.3168 44.0614 63.3266 44.0558 63.3352C43.4389 64.3106 42.4832 65.0195 41.0076 65.0195C36.4984 65.0195 36.8538 58.1422 36.8765 57.769L36.8777 57.7721C36.8845 58.033 37.0318 58.2791 37.2915 58.4989C37.3111 58.5154 37.3314 58.532 37.3522 58.5486C38.044 59.0912 39.4214 59.4601 41.007 59.4601C41.0567 59.4601 41.1052 59.4601 41.1549 59.4595C42.6778 59.4374 43.9908 59.074 44.6617 58.5486C44.677 58.5369 44.6911 58.5259 44.7046 58.5142C44.9551 58.3067 45.1067 58.0765 45.1325 57.831C45.146 58.0557 45.1785 58.7524 45.1092 59.6283Z" fill="#B58A83"/>
</g>
<mask id="mask25_96_2468" style="mask-type:luminance" maskUnits="userSpaceOnUse" x="3" y="16" width="71" height="72">
<path d="M38.7521 87.1798C58.1738 87.1798 73.9182 71.4354 73.9182 52.0137C73.9182 32.5919 58.1738 16.8475 38.7521 16.8475C19.3304 16.8475 3.58594 32.5919 3.58594 52.0137C3.58594 71.4354 19.3304 87.1798 38.7521 87.1798Z" fill="white"/>
</mask>
<g mask="url(#mask25_96_2468)">
<path d="M45.1353 57.7528C45.1353 57.7786 45.134 57.8044 45.131 57.8302C45.1144 57.9867 45.0469 58.1371 44.9352 58.2795C44.8965 58.3292 44.8529 58.3771 44.8038 58.4237C44.7725 58.4544 44.7393 58.4839 44.7031 58.5134C44.6896 58.525 44.6749 58.5361 44.6602 58.5477C43.9893 59.0738 42.6763 59.4365 41.1534 59.4586C41.1037 59.4593 41.0552 59.4593 41.0054 59.4593C39.4199 59.4593 38.0425 59.0897 37.3507 58.5477C37.3298 58.5312 37.309 58.5146 37.2899 58.498C37.2605 58.4735 37.2335 58.4483 37.2065 58.4225C37.158 58.3759 37.1132 58.3274 37.0751 58.2783C36.9493 58.1181 36.8799 57.948 36.8756 57.7712C36.875 57.7651 36.875 57.759 36.875 57.7528C36.875 56.81 38.7245 56.0464 41.0048 56.0464C43.2858 56.0458 45.1353 56.81 45.1353 57.7528Z" fill="#936763"/>
</g>
<mask id="mask26_96_2468" style="mask-type:luminance" maskUnits="userSpaceOnUse" x="3" y="16" width="71" height="72">
<path d="M38.7521 87.1798C58.1738 87.1798 73.9182 71.4354 73.9182 52.0137C73.9182 32.5919 58.1738 16.8475 38.7521 16.8475C19.3304 16.8475 3.58594 32.5919 3.58594 52.0137C3.58594 71.4354 19.3304 87.1798 38.7521 87.1798Z" fill="white"/>
</mask>
<g mask="url(#mask26_96_2468)">
<path d="M44.8044 58.4252C44.7731 58.4559 44.7399 58.4853 44.7037 58.5148C44.6902 58.5264 44.6755 58.5375 44.6607 58.5492C43.9898 59.0752 42.6768 59.438 41.1539 59.4601C41.1042 59.4607 41.0557 59.4607 41.006 59.4607C39.4205 59.4607 38.0431 59.0912 37.3513 58.5492C37.3304 58.5326 37.3095 58.516 37.2905 58.4994C37.261 58.4749 37.234 58.4497 37.207 58.4239C38.0676 57.9636 39.4487 57.6665 41.0054 57.6665C42.5627 57.6665 43.9438 57.9636 44.8044 58.4252Z" fill="#46543C"/>
</g>
<mask id="mask27_96_2468" style="mask-type:luminance" maskUnits="userSpaceOnUse" x="3" y="16" width="71" height="72">
<path d="M38.7521 87.1798C58.1738 87.1798 73.9182 71.4354 73.9182 52.0137C73.9182 32.5919 58.1738 16.8475 38.7521 16.8475C19.3304 16.8475 3.58594 32.5919 3.58594 52.0137C3.58594 71.4354 19.3304 87.1798 38.7521 87.1798Z" fill="white"/>
</mask>
<g mask="url(#mask27_96_2468)">
<path opacity="0.5" d="M37.9832 58.5628C37.9065 58.5818 39.4423 57.7433 41.366 58.0729C41.3654 58.0729 40.5595 57.9225 37.9832 58.5628Z" fill="#CBDDBC"/>
</g>
<mask id="mask28_96_2468" style="mask-type:luminance" maskUnits="userSpaceOnUse" x="3" y="16" width="71" height="72">
<path d="M38.7521 87.1798C58.1738 87.1798 73.9182 71.4354 73.9182 52.0137C73.9182 32.5919 58.1738 16.8475 38.7521 16.8475C19.3304 16.8475 3.58594 32.5919 3.58594 52.0137C3.58594 71.4354 19.3304 87.1798 38.7521 87.1798Z" fill="white"/>
</mask>
<g mask="url(#mask28_96_2468)">
<path d="M45.1082 59.6303C45.0885 59.8838 45.0603 60.152 45.0204 60.4288C44.8982 60.4743 44.7497 60.505 44.5686 60.5142C43.4791 60.5694 42.8646 61.3385 41.6382 61.5497C40.4105 61.7596 40.4375 61.1667 40.4375 61.1667C40.4375 61.1667 43.8179 59.6075 43.8639 59.6266C43.8934 59.6376 44.6146 59.6339 45.1082 59.6303Z" fill="#A57A76"/>
</g>
<mask id="mask29_96_2468" style="mask-type:luminance" maskUnits="userSpaceOnUse" x="3" y="16" width="71" height="72">
<path d="M38.7521 87.1798C58.1738 87.1798 73.9182 71.4354 73.9182 52.0137C73.9182 32.5919 58.1738 16.8475 38.7521 16.8475C19.3304 16.8475 3.58594 32.5919 3.58594 52.0137C3.58594 71.4354 19.3304 87.1798 38.7521 87.1798Z" fill="white"/>
</mask>
<g mask="url(#mask29_96_2468)">
<path d="M44.6395 62.0785C44.5984 62.1988 44.5548 62.3179 44.5075 62.4358C44.3872 62.7415 44.243 63.0349 44.0723 63.308C44.0668 63.3178 44.0607 63.3277 44.0552 63.3363L40.8719 64.6314C40.8657 64.5768 40.6822 63.8783 41.5489 63.4504C42.1492 63.1546 43.801 62.4241 44.6395 62.0785Z" fill="#A57A76"/>
</g>
<mask id="mask30_96_2468" style="mask-type:luminance" maskUnits="userSpaceOnUse" x="3" y="16" width="71" height="72">
<path d="M38.7521 87.1798C58.1738 87.1798 73.9182 71.4354 73.9182 52.0137C73.9182 32.5919 58.1738 16.8475 38.7521 16.8475C19.3304 16.8475 3.58594 32.5919 3.58594 52.0137C3.58594 71.4354 19.3304 87.1798 38.7521 87.1798Z" fill="white"/>
</mask>
<g mask="url(#mask30_96_2468)">
<path d="M59.1762 62.7389C59.1707 63.0035 59.1621 63.2736 59.1522 63.5467C59.0927 63.5676 59.0282 63.5879 58.9577 63.6069C58.4328 63.7518 57.5827 63.8629 56.2138 63.8622C56.0137 63.8622 55.8014 63.8604 55.5767 63.8543C55.2986 63.8475 55.0022 63.8371 54.6866 63.8217C53.2626 63.753 50.1763 65.7313 49.4176 66.2611C48.6576 66.7908 48.1064 67.1125 47.047 67.0204C45.9881 66.9283 44.7224 66.3304 44.7224 66.3304C44.7224 66.3304 43.871 66.3532 42.9963 66.1003C42.1222 65.8467 42.2603 65.4103 42.2603 65.4103C42.2603 65.4103 40.9492 65.4103 40.8185 64.9266C40.6877 64.4435 41.2015 63.9371 41.9381 63.6842C42.6741 63.4307 46.8395 61.7286 47.2771 61.4137C47.7142 61.0994 47.6921 60.5764 47.6921 60.5764C47.6921 60.5764 47.6172 60.272 47.1335 60.1093C46.7836 59.9915 45.5744 60.1173 44.8249 60.0485C44.0742 59.9798 42.4451 60.946 41.87 61.1995C41.2948 61.453 40.3513 61.4296 40.2814 60.8772C40.2126 60.3248 41.8699 59.35 42.9988 58.7982C44.1565 58.2322 44.135 58.2641 45.7696 58.1224C47.403 57.9812 47.8787 57.0887 48.9811 56.8395C49.792 56.6571 50.9589 57.4017 52.0619 57.7534C52.2393 57.8099 52.4278 57.8633 52.6193 57.9112C52.7948 57.9554 52.9716 57.9934 53.149 58.0254H53.1496C53.3976 58.0689 53.6474 58.1009 53.8979 58.1187C54.7904 58.1825 55.6872 58.0794 56.5373 57.8038C56.5871 57.7872 56.6362 57.7706 56.6859 57.7534C56.9597 57.6583 57.2285 57.5441 57.49 57.4122C57.8773 57.2163 58.1965 57.0107 58.4592 56.8008C58.8472 57.611 59.1105 58.506 59.1565 59.4409C59.2032 60.4095 59.2069 61.5279 59.1762 62.7389Z" fill="#EDCBBC"/>
</g>
<mask id="mask31_96_2468" style="mask-type:luminance" maskUnits="userSpaceOnUse" x="3" y="16" width="71" height="72">
<path d="M38.7521 87.1798C58.1738 87.1798 73.9182 71.4354 73.9182 52.0137C73.9182 32.5919 58.1738 16.8475 38.7521 16.8475C19.3304 16.8475 3.58594 32.5919 3.58594 52.0137C3.58594 71.4354 19.3304 87.1798 38.7521 87.1798Z" fill="white"/>
</mask>
<g mask="url(#mask31_96_2468)">
<path d="M42.2617 65.412C42.2617 65.412 44.6385 64.8215 45.7151 64.3273C46.7918 63.8326 48.6185 62.5073 49.2133 62.6117C49.8056 62.7154 46.2725 64.0222 45.8655 64.2966C45.4585 64.571 43.6256 65.3365 42.2617 65.412Z" fill="#E2B29D"/>
</g>
<mask id="mask32_96_2468" style="mask-type:luminance" maskUnits="userSpaceOnUse" x="3" y="16" width="71" height="72">
<path d="M38.7521 87.1798C58.1738 87.1798 73.9182 71.4354 73.9182 52.0137C73.9182 32.5919 58.1738 16.8475 38.7521 16.8475C19.3304 16.8475 3.58594 32.5919 3.58594 52.0137C3.58594 71.4354 19.3304 87.1798 38.7521 87.1798Z" fill="white"/>
</mask>
<g mask="url(#mask32_96_2468)">
<path d="M44.7227 66.331C44.7227 66.331 47.0994 65.7608 47.8446 65.4796C48.5898 65.1985 49.7923 64.0083 49.9635 64.2649C50.1348 64.5214 47.7924 65.6564 47.5088 65.7914C46.3732 66.331 44.7227 66.331 44.7227 66.331Z" fill="#E2B29D"/>
</g>
<mask id="mask33_96_2468" style="mask-type:luminance" maskUnits="userSpaceOnUse" x="3" y="16" width="71" height="72">
<path d="M38.7521 87.1798C58.1738 87.1798 73.9182 71.4354 73.9182 52.0137C73.9182 32.5919 58.1738 16.8475 38.7521 16.8475C19.3304 16.8475 3.58594 32.5919 3.58594 52.0137C3.58594 71.4354 19.3304 87.1798 38.7521 87.1798Z" fill="white"/>
</mask>
<g mask="url(#mask33_96_2468)">
<path d="M41.4317 59.8754C41.6226 59.962 41.7988 60.1001 41.9044 60.2916L41.9234 60.3278C41.9283 60.3413 41.9351 60.3561 41.9375 60.3714C41.9437 60.4021 41.94 60.4328 41.932 60.461C41.916 60.5181 41.8817 60.5648 41.8461 60.6065C41.7724 60.6881 41.684 60.7514 41.5932 60.8078C41.409 60.9159 41.2108 61.0018 40.9965 61.0331C40.9431 61.0392 40.8873 61.0423 40.8308 61.0251C40.7786 61.0061 40.7307 60.9779 40.6902 60.941C40.611 60.8655 40.5632 60.763 40.5527 60.6581C40.5767 60.76 40.6301 60.8557 40.7099 60.9183C40.7492 60.9502 40.7946 60.9736 40.8425 60.9883C40.8879 61 40.9401 60.9951 40.9898 60.9865C41.0898 60.9674 41.1893 60.9355 41.2844 60.895C41.3802 60.8557 41.4735 60.8091 41.5613 60.755C41.6496 60.7023 41.7344 60.6409 41.8031 60.5678C41.8369 60.531 41.8669 60.4905 41.8804 60.4463C41.8872 60.4242 41.8903 60.4021 41.8866 60.3806C41.8854 60.3696 41.8811 60.3597 41.878 60.3487L41.862 60.3143C41.8191 60.2216 41.7534 60.14 41.6797 60.0676C41.6061 59.9927 41.522 59.9294 41.4317 59.8754Z" fill="#E3B19B"/>
</g>
<mask id="mask34_96_2468" style="mask-type:luminance" maskUnits="userSpaceOnUse" x="3" y="16" width="71" height="72">
<path d="M38.7521 87.1798C58.1738 87.1798 73.9182 71.4354 73.9182 52.0137C73.9182 32.5919 58.1738 16.8475 38.7521 16.8475C19.3304 16.8475 3.58594 32.5919 3.58594 52.0137C3.58594 71.4354 19.3304 87.1798 38.7521 87.1798Z" fill="white"/>
</mask>
<g mask="url(#mask34_96_2468)">
<path d="M41.4001 65.1461C41.3492 65.132 41.2988 65.1087 41.2583 65.0719C41.2172 65.0363 41.192 64.9743 41.208 64.9172C41.2092 64.9024 41.2172 64.8902 41.2227 64.8773C41.2282 64.8638 41.235 64.8515 41.2436 64.8404L41.2675 64.8061L41.2957 64.776C41.3142 64.7551 41.335 64.7379 41.3559 64.7201C41.3762 64.7017 41.3976 64.6851 41.4197 64.6698C41.5928 64.5409 41.7942 64.4507 42.0053 64.4022C42.1115 64.3801 42.2214 64.3666 42.3325 64.3819C42.3877 64.3905 42.4442 64.4071 42.4927 64.4451C42.5387 64.4844 42.5676 64.5262 42.6007 64.571C42.632 64.6158 42.6591 64.6631 42.6805 64.714C42.7014 64.7643 42.7168 64.8202 42.7112 64.8767C42.7063 64.9337 42.6775 64.9865 42.6357 65.0221C42.5958 65.0602 42.5437 65.0792 42.4939 65.0964C42.5412 65.0731 42.5897 65.0491 42.6247 65.0105C42.6603 64.9736 42.6812 64.9252 42.6812 64.8754C42.683 64.8257 42.667 64.776 42.6449 64.73C42.6228 64.6839 42.5946 64.6403 42.5627 64.5992C42.5461 64.579 42.5302 64.5587 42.5124 64.5397C42.4952 64.5213 42.4768 64.4985 42.459 64.4875C42.4227 64.4605 42.3742 64.4458 42.3245 64.4402C42.2245 64.428 42.1195 64.4408 42.0188 64.4623C41.8163 64.5071 41.6211 64.5931 41.4468 64.7085C41.424 64.7226 41.4032 64.7373 41.3829 64.7533C41.362 64.7686 41.3412 64.7846 41.3234 64.803L41.2951 64.8294L41.2718 64.8589C41.2632 64.8687 41.2565 64.8791 41.2516 64.8902C41.2466 64.9012 41.2387 64.9117 41.2368 64.9239C41.2196 64.97 41.2344 65.0215 41.27 65.0596C41.305 65.0976 41.3516 65.1259 41.4001 65.1461Z" fill="#E3B19B"/>
</g>
<mask id="mask35_96_2468" style="mask-type:luminance" maskUnits="userSpaceOnUse" x="3" y="16" width="71" height="72">
<path d="M38.7521 87.1798C58.1738 87.1798 73.9182 71.4354 73.9182 52.0137C73.9182 32.5919 58.1738 16.8475 38.7521 16.8475C19.3304 16.8475 3.58594 32.5919 3.58594 52.0137C3.58594 71.4354 19.3304 87.1798 38.7521 87.1798Z" fill="white"/>
</mask>
<g mask="url(#mask35_96_2468)">
<path d="M42.5864 65.8051C42.5698 65.7542 42.5667 65.6928 42.5993 65.6443C42.6293 65.5952 42.6778 65.5627 42.7269 65.5369C42.8282 65.4884 42.9375 65.4669 43.0461 65.4503C43.1542 65.4319 43.2677 65.4295 43.3794 65.4454C43.4905 65.4626 43.6016 65.5117 43.6839 65.5946C43.7649 65.6793 43.8116 65.7904 43.8245 65.9046C43.8257 65.9187 43.8269 65.9334 43.8269 65.9481C43.8269 65.9641 43.8239 65.9856 43.8134 66.0015C43.7938 66.0347 43.7631 66.0494 43.7355 66.0611C43.6796 66.082 43.6231 66.0893 43.5679 66.0924C43.3463 66.1034 43.1296 66.0727 42.9148 66.0353C43.0234 66.0408 43.1321 66.05 43.2407 66.0519C43.3488 66.0556 43.458 66.0574 43.5636 66.0457C43.6164 66.0402 43.6692 66.0304 43.7146 66.012C43.7367 66.0021 43.7569 65.9893 43.7643 65.9745C43.7692 65.9672 43.7692 65.9604 43.7692 65.9494C43.7686 65.9371 43.7674 65.9242 43.7661 65.9119C43.7533 65.81 43.7103 65.7106 43.6397 65.6382C43.5685 65.5657 43.4715 65.5215 43.369 65.5037C43.2659 65.4853 43.1591 65.4865 43.0517 65.4982C42.9448 65.5086 42.8374 65.5252 42.7392 65.5657C42.6907 65.586 42.6435 65.613 42.6122 65.6547C42.5796 65.6946 42.5759 65.7517 42.5864 65.8051Z" fill="#E3B19B"/>
</g>
<mask id="mask36_96_2468" style="mask-type:luminance" maskUnits="userSpaceOnUse" x="3" y="16" width="71" height="72">
<path d="M38.7521 87.1798C58.1738 87.1798 73.9182 71.4354 73.9182 52.0137C73.9182 32.5919 58.1738 16.8475 38.7521 16.8475C19.3304 16.8475 3.58594 32.5919 3.58594 52.0137C3.58594 71.4354 19.3304 87.1798 38.7521 87.1798Z" fill="white"/>
</mask>
<g mask="url(#mask36_96_2468)">
<path d="M18.6409 38.6122C18.6409 38.6122 14.5706 37.4625 12.8145 39.8067C12.8145 39.8067 13.2196 38.0505 15.3809 37.7197C17.5421 37.3888 18.6409 38.6122 18.6409 38.6122Z" fill="#98B770"/>
</g>
<mask id="mask37_96_2468" style="mask-type:luminance" maskUnits="userSpaceOnUse" x="3" y="16" width="71" height="72">
<path d="M38.7521 87.1798C58.1738 87.1798 73.9182 71.4354 73.9182 52.0137C73.9182 32.5919 58.1738 16.8475 38.7521 16.8475C19.3304 16.8475 3.58594 32.5919 3.58594 52.0137C3.58594 71.4354 19.3304 87.1798 38.7521 87.1798Z" fill="white"/>
</mask>
<g mask="url(#mask37_96_2468)">
<path opacity="0.5" d="M59.1754 62.74C59.1699 63.0045 59.1613 63.2746 59.1515 63.5477C59.0919 63.5686 59.0275 63.5889 58.9569 63.6079C58.4321 63.7528 57.5819 63.8639 56.2131 63.8632C55.6434 61.2968 54.4287 59.0306 53.8965 58.1191C54.789 58.1829 55.6858 58.0798 56.5359 57.8042L58.1307 58.5622L59.1754 62.74Z" fill="#E3B19B"/>
</g>
<mask id="mask38_96_2468" style="mask-type:luminance" maskUnits="userSpaceOnUse" x="3" y="16" width="71" height="72">
<path d="M38.7521 87.1798C58.1738 87.1798 73.9182 71.4354 73.9182 52.0137C73.9182 32.5919 58.1738 16.8475 38.7521 16.8475C19.3304 16.8475 3.58594 32.5919 3.58594 52.0137C3.58594 71.4354 19.3304 87.1798 38.7521 87.1798Z" fill="white"/>
</mask>
<g mask="url(#mask38_96_2468)">
<path d="M57.3378 82.6801C57.4219 82.6451 62.7739 80.3494 64.8909 78.3269C65.3679 77.8708 65.9308 77.1164 66.5157 76.219C69.5517 71.5705 71.1495 66.1332 71.1784 60.5811C71.1913 58.0976 71.1194 55.2494 70.8641 52.4086C70.1533 44.5038 68.2566 43.1528 67.024 41.1142C65.7914 39.0751 64.8437 34.7145 64.5589 32.1548C64.2747 29.5952 63.9407 29.5712 63.9407 29.5712C63.9407 29.5712 60.6433 32.0253 58.7312 36.2871C58.0781 37.7425 57.6963 39.3047 57.5662 40.8951C57.3323 43.7525 56.5945 50.774 54.904 52.3135C52.7685 54.2575 51.1032 54.1826 51.3315 57.4623C51.3315 57.4623 52.7538 55.1672 54.904 58.1191C57.0548 61.071 60.3572 79.0432 60.3572 79.0432" fill="#98B770"/>
</g>
<mask id="mask39_96_2468" style="mask-type:luminance" maskUnits="userSpaceOnUse" x="3" y="16" width="71" height="72">
<path d="M38.7521 87.1798C58.1738 87.1798 73.9182 71.4354 73.9182 52.0137C73.9182 32.5919 58.1738 16.8475 38.7521 16.8475C19.3304 16.8475 3.58594 32.5919 3.58594 52.0137C3.58594 71.4354 19.3304 87.1798 38.7521 87.1798Z" fill="white"/>
</mask>
<g mask="url(#mask39_96_2468)">
<path d="M55.8613 51.7483C55.8613 51.7483 61.279 48.3901 66.5929 52.011C66.5929 52.011 62.6018 49.9535 55.8613 51.7483Z" fill="#829E5F"/>
</g>
<path d="M38.6011 14.86C43.416 14.86 48.0847 15.8023 52.4785 17.6609C54.5907 18.5541 56.628 19.6602 58.5339 20.948C60.4226 22.2241 62.1984 23.6893 63.8128 25.3037C65.4272 26.9181 66.8924 28.6939 68.1685 30.5826C69.4563 32.4885 70.5618 34.5258 71.4556 36.638C73.3142 41.0318 74.2564 45.7012 74.2564 50.5154C74.2564 55.3302 73.3142 59.999 71.4556 64.3928C70.5624 66.505 69.4563 68.5423 68.1685 70.4482C66.8924 72.3369 65.4272 74.1127 63.8128 75.7271C62.1984 77.3415 60.4226 78.8067 58.5339 80.0828C56.628 81.3706 54.5907 82.4761 52.4785 83.3699C48.0847 85.2285 43.4153 86.1707 38.6011 86.1707C33.7869 86.1707 29.1175 85.2285 24.7237 83.3699C22.6115 82.4767 20.5742 81.3706 18.6683 80.0828C16.7796 78.8067 15.0038 77.3415 13.3894 75.7271C11.775 74.1127 10.3098 72.3369 9.03369 70.4482C7.74588 68.5423 6.64038 66.505 5.74664 64.3928C3.88798 59.999 2.94575 55.3296 2.94575 50.5154C2.94575 45.7005 3.88798 41.0318 5.74664 36.638C6.63976 34.5258 7.74588 32.4885 9.03369 30.5826C10.3098 28.6939 11.775 26.9181 13.3894 25.3037C15.0038 23.6893 16.7796 22.2241 18.6683 20.948C20.5742 19.6602 22.6115 18.5547 24.7237 17.6609C29.1175 15.8023 33.7862 14.86 38.6011 14.86ZM38.6011 11.9137C17.2823 11.9137 0 29.196 0 50.5148C0 71.8336 17.2823 89.1159 38.6011 89.1159C59.9199 89.1159 77.2022 71.8336 77.2022 50.5148C77.2022 29.196 59.9199 11.9137 38.6011 11.9137Z" fill="#718C42"/>
<path opacity="0.84" d="M79.284 15.0965C79.284 15.0965 72.3619 13.1875 70.4106 15.8749C68.4592 18.5622 75.8435 19.4179 75.7128 21.3165C75.5624 23.4968 72.0513 22.7178 72.0513 22.7178C75.7834 23.7368 77.3928 22.3403 76.8385 20.3957C76.3604 18.7194 72.1477 18.0951 71.6609 16.2291C70.9249 13.4061 79.284 15.0965 79.284 15.0965Z" fill="url(#paint4_linear_96_2468)"/>
<path opacity="0.84" d="M70.6815 22.9625C67.268 22.4248 63.7913 20.1414 60.6 20.2445C57.4081 20.3476 52.5061 22.9625 52.5098 27.0789C52.5153 32.8967 59.02 33.0434 62.6864 33.3276C65.3565 33.5357 68.3649 34.0648 68.9401 34.0648C67.6541 33.5216 65.9593 33.5302 65.3166 32.8765C64.4076 31.9508 67.7118 32.2534 66.3209 30.6421C64.9299 29.0308 57.5984 31.7795 56.9661 27.8609C56.3339 23.9422 60.9376 23.1737 67.0476 24.4161C73.3713 25.7014 75.1827 23.3701 75.1066 23.3738C75.106 23.3732 74.0938 23.4996 70.6815 22.9625ZM64.3916 30.9417C65.7825 30.7207 65.5769 31.8587 64.6924 32.0011C63.8349 32.1386 60.4152 31.1498 60.2004 31.0865C60.4017 31.1185 63.0357 31.1584 64.3916 30.9417Z" fill="url(#paint5_linear_96_2468)"/>
<path opacity="0.84" d="M77.6406 34.6791C73.5316 33.1623 66.4395 33.1169 66.4395 33.1169C66.4395 33.1169 74.2007 33.6208 74.7642 36.9232C75.1859 39.3871 71.4599 39.6867 71.0241 39.664L74.1504 39.5523C74.731 39.5314 75.3123 39.5338 75.8924 39.5651C82.2461 39.9064 81.6108 36.1449 77.6406 34.6791ZM74.2111 39.1036C74.2111 39.1036 75.823 38.6131 76.1391 37.1596C76.4491 35.7306 73.5555 34.3022 73.4555 34.2531C73.5764 34.2801 77.4392 35.1603 77.6565 36.6225C77.8769 38.1073 76.0446 38.8728 74.2111 39.1036Z" fill="url(#paint6_linear_96_2468)"/>
<path opacity="0.84" d="M71.3705 43.4291C71.1182 45.9894 66.4101 48.0353 59.5359 48.3557C52.6616 48.6749 50.102 45.3884 48.743 47.4276C47.384 49.4655 51.5555 46.7794 53.8942 48.6755C56.2329 50.5722 48.1402 49.9639 45.7776 50.8546C39.2409 53.3172 40.1641 55.9027 40.0708 56.1991C40.0708 56.1991 38.3859 53.1896 40.4625 52.1528C42.1529 51.3082 45.1079 51.1105 46.2453 49.6883C47.3833 48.266 44.3498 48.487 45.9611 47.0016C47.5724 45.5161 51.5746 45.0048 55.2465 45.6554C58.919 46.3061 66.9767 46.7493 69.8531 44.3468C72.7289 41.9449 65.7509 43.1443 63.9487 41.9277C60.8102 39.8075 66.4384 39.9524 66.4384 39.9524C66.4384 39.9524 72.3213 40.2004 72.4103 40.2133C72.3158 40.2133 65.0812 40.4919 66.3457 41.3452C67.6096 42.1971 71.6234 40.8694 71.3705 43.4291Z" fill="url(#paint7_linear_96_2468)"/>
<path d="M47.2589 3.24157C47.2282 3.44597 47.1896 3.64424 47.1448 3.8247C47.0355 4.26911 46.8771 4.75649 46.6844 5.23957C46.6586 5.30341 46.6316 5.36786 46.6046 5.4317C46.1006 6.62621 45.3168 7.01353 44.582 7.23635C44.5452 7.2474 44.509 7.25845 44.4728 7.26888C44.3371 7.30817 44.1923 7.33456 44.0419 7.35175H44.0413C42.3508 7.54326 39.874 6.46354 39.874 6.46354C39.874 6.46354 39.3627 5.4274 39.1135 4.20589C39.0803 4.04629 39.0521 3.88179 39.03 3.71728C38.9704 3.27471 38.9557 2.82232 39.0226 2.39817C39.0263 2.37791 39.0294 2.35827 39.033 2.33801C39.1325 1.7604 39.3842 1.23988 39.874 0.870355C40.2613 0.578788 40.7278 0.368859 41.2379 0.227679C41.6983 0.100617 42.1943 0.0300267 42.6951 0.00792896C43.2715 -0.0178518 43.8577 0.0202049 44.4077 0.107982C44.8681 0.181027 45.3039 0.289675 45.6906 0.426558C46.3161 0.647536 46.8139 0.939718 47.0797 1.27303C47.3682 1.63641 47.3713 2.48349 47.2589 3.24157Z" fill="#A6A6A6"/>
<path d="M45.4274 6.02203C45.4274 6.02203 45.1112 1.53435 46.5022 1.6608C47.8931 1.78724 46.0903 6.3001 46.0903 6.3001L45.4274 6.02203Z" fill="#828282"/>
<path d="M39.7657 5.09218C41.2242 4.91233 44.3393 4.62383 46.3048 5.72319C46.5589 5.8656 46.6277 6.3272 46.5025 6.59053C46.5025 6.59053 40.0235 5.19837 39.4232 6.19952C39.1832 6.60035 39.0647 6.5316 39.0089 6.30571C38.8732 5.75634 39.2041 5.16154 39.7657 5.09218Z" fill="#98B770"/>
<path d="M42.9 5.72305C44.5396 5.72305 46.157 6.14782 47.5651 6.98815C48.9493 7.81436 50.4863 9.17337 51.663 11.4016C53.9569 15.7444 58.2574 28.2437 58.2574 28.2437L53.6899 27.4955L44.7802 26.5625L39.6406 5.72305H42.9Z" fill="#A6A6A6"/>
<path d="M29.6584 16.822C29.6584 16.822 30.9603 26.5769 30.3397 26.5518C29.5663 26.5205 24.7324 27.2994 24.7324 27.2994C24.7324 27.2994 27.9341 23.3187 29.6584 16.822Z" fill="#828282"/>
<path d="M49.7908 18.155L52.8925 27.4133L49.1543 27.0573L49.7908 18.155Z" fill="#828282"/>
<path d="M30.0736 21.156C30.0736 21.156 29.9772 21.0142 29.8348 20.7718C29.418 20.0567 28.6084 18.4687 28.7146 17.063C28.7797 16.2024 29.0264 15.7728 29.3763 15.6494V15.6482C29.7912 15.5008 30.3523 15.7826 30.9268 16.289C31.9851 17.2214 30.0736 21.156 30.0736 21.156Z" fill="#EFD3C5"/>
<path opacity="0.5" d="M30.5174 17.3904C29.5771 17.4775 29.8177 18.707 29.7833 18.8243C29.7833 18.8243 29.8864 17.6353 30.5776 17.6825" fill="#9E8068"/>
<path opacity="0.5" d="M29.0834 17.572C29.0834 17.572 28.9342 16.4303 29.4738 16.0749C30.0133 15.7195 30.4166 16.2762 30.4166 16.2762V16.5604C30.4166 16.5604 29.8948 15.9085 29.5394 16.2995C29.184 16.6912 29.0834 17.572 29.0834 17.572Z" fill="#9E8068"/>
<path d="M30.2567 18.8687C30.099 18.6158 29.2151 14.4516 29.6583 11.8054C30.417 7.27531 36.5515 6.02188 36.5515 6.02188L30.2567 18.8687Z" fill="#A6A6A6"/>
<path d="M30.5621 17.5685C30.737 17.0044 29.936 11.7298 32.8633 8.00755C35.6206 4.50138 43.5556 5.91011 44.5905 6.46378C47.0292 7.76939 48.9002 10.043 48.8609 14.4085C48.8394 16.8104 48.4183 20.9188 48.4183 20.9188L46.7119 26.1332L39.2533 32.3593L33.8804 32.0119L30.1791 24.6202C30.1791 24.6195 29.1712 22.0562 30.5621 17.5685Z" fill="#EDCBBC"/>
<path opacity="0.45" d="M34.7266 10.9871C34.7266 10.9871 35.8038 10.9889 36.6724 11.3572C37.541 11.7255 38.1941 12.1214 38.9393 12.0981C41.6812 12.0128 43.3735 10.8441 43.3735 10.8441C43.3735 10.8441 41.0545 12.4707 38.8165 12.3774C36.9124 12.2982 36.6442 11.34 34.7266 10.9871Z" fill="#9E8068"/>
<path opacity="0.45" d="M33.584 12.9475C33.584 12.9475 35.0222 13.2888 36.2357 14.1402C37.4499 14.9916 39.2858 14.719 40.3085 14.3397C41.1291 14.0352 42.8411 13.4411 43.5789 13.357C43.5789 13.357 41.0536 14.1832 40.0034 14.6742C38.9531 15.1653 37.4836 15.0843 36.5015 14.63C35.5206 14.1752 34.9878 13.3588 33.584 12.9475Z" fill="#9E8068"/>
<path d="M31.5469 17.572C31.5469 17.572 32.2344 18.5909 33.036 18.8837C33.8377 19.1759 34.7621 19.1286 34.7621 19.1286C34.7621 19.1286 34.0034 19.3423 33.036 19.0894C32.068 18.8358 31.5469 17.572 31.5469 17.572Z" fill="#AF907B"/>
<path d="M40.3125 19.2622C40.3125 19.2622 40.8416 19.1118 41.399 19.0885C41.9557 19.0645 42.1614 19.2033 42.8488 19.2622C43.5363 19.3217 44.3895 18.8669 44.3895 18.8669C44.3895 18.8669 43.7499 19.3788 43.195 19.4641C42.2068 19.6164 42.0097 19.2591 41.3793 19.191C40.7489 19.1228 40.3125 19.2622 40.3125 19.2622Z" fill="#AF907B"/>
<path opacity="0.45" d="M36.4141 19.503C36.8879 19.0543 36.4141 17.8064 36.4141 17.8064C36.4141 17.8064 36.8689 18.1728 36.8511 18.7001C36.8333 19.228 36.4141 19.503 36.4141 19.503Z" fill="#9E8068"/>
<path opacity="0.45" d="M39.4229 18.0173C39.475 17.9449 38.5617 18.5446 39.1859 19.7299C39.1859 19.7299 38.9158 18.7214 39.4229 18.0173Z" fill="#9E8068"/>
<path opacity="0.45" d="M33.4084 20.8328C35.0362 20.6763 35.3419 19.5407 35.3419 19.5407C35.3419 19.5407 35.0362 20.1017 34.4138 20.4074C33.7914 20.7131 33.3789 20.8328 33.3789 20.8328" fill="#9E8068"/>
<path opacity="0.45" d="M40.0742 19.7311C40.0859 19.7489 40.483 20.3652 41.2951 20.8336C42.1072 21.3019 42.7886 21.3314 42.7886 21.3314C42.7886 21.3314 41.6297 20.887 41.2092 20.5733C40.7881 20.259 40.0742 19.7311 40.0742 19.7311Z" fill="#9E8068"/>
<path opacity="0.45" d="M34.9667 22.3439C35.2473 21.2906 35.9771 20.8327 35.9771 20.8327C35.9771 20.8327 35.4596 20.8947 35.0993 21.3919C34.8342 21.7583 34.9667 22.3439 34.9667 22.3439Z" fill="#9E8068"/>
<path opacity="0.45" d="M40.4599 23.1175C40.6981 21.5117 39.5705 21.0028 39.541 21.0206C39.541 21.0206 40.0088 21.6179 40.1242 21.8481C40.3543 22.3066 40.4599 23.1175 40.4599 23.1175Z" fill="#9E8068"/>
<path d="M35.1484 22.793C35.1484 22.793 35.5996 22.4542 36.0735 22.8495C36.5474 23.2448 36.5952 23.4909 37.2348 23.5222C37.8751 23.5535 38.2618 22.9992 38.7909 22.8967C39.32 22.7942 39.8853 22.936 39.9504 23.1177C39.9504 23.1177 39.1193 23.1386 38.7197 23.1177C38.3201 23.0968 38.0009 23.5284 37.2422 23.5204C36.4835 23.5124 36.2625 22.9673 35.9028 22.8961C35.5444 22.8255 35.1484 22.793 35.1484 22.793Z" fill="#AF907B"/>
<path d="M34.8025 25.0709C34.8025 25.0709 34.4152 24.2336 34.4631 24.6283C34.5097 25.0236 34.8025 25.0709 34.8025 25.0709Z" fill="#C6A48B"/>
<path d="M40.4199 25.2839C40.4991 25.2526 41.1307 24.7228 41.1706 25.023C41.2105 25.3232 40.4199 25.2839 40.4199 25.2839Z" fill="#C6A48B"/>
<path opacity="0.45" d="M40.0402 25.331C39.8192 25.2838 38.0729 25.6785 37.0772 25.5287C36.0816 25.3789 35.0332 25.1334 35.0332 25.1334C35.0332 25.1334 36.3272 25.6864 37.3541 25.7497C38.381 25.8129 40.0402 25.331 40.0402 25.331Z" fill="#9E8068"/>
<path d="M51.15 18.2909C51.3078 15.8006 49.791 12.0906 49.791 12.0906C49.791 12.0906 50.6762 16.6078 49.791 18.6316" fill="#828282"/>
<path d="M51.1487 21.1591C50.6399 22.2843 49.2152 23.038 48.6474 22.0743C48.2828 21.4568 48.9838 20.2378 49.063 19.3981C49.1065 18.9272 49.1612 18.5952 49.1612 18.5952C49.1925 18.5006 49.1612 16.2252 50.6626 16.3197C51.2727 16.3578 51.5434 16.9919 51.6361 17.7911C51.7712 18.9561 51.3709 20.6674 51.1487 21.1591Z" fill="#EFD3C5"/>
<path opacity="0.5" d="M50.9181 16.798C50.0962 16.6439 49.5198 17.6641 49.3418 19.3404V19.4031L49.4719 19.7965C49.4719 19.7965 49.553 19.3693 49.6941 18.8463C49.8494 18.9102 50.106 19.0538 50.2699 19.3404C50.5308 19.7971 50.0962 20.4957 50.0962 20.4957C50.0962 20.4957 50.6652 19.9267 50.4123 19.2079C50.2398 18.7174 49.9538 18.5768 49.7819 18.5412C50.0225 17.7396 50.3859 16.8692 50.8113 16.976C51.2183 17.0779 51.3091 18.5523 51.3091 18.5523C51.3091 18.5523 51.4417 16.8962 50.9181 16.798Z" fill="#9E8068"/>
<path d="M43.2119 23.5675C43.2119 23.5675 44.396 26.2665 40.1164 30.9954C38.1711 33.1444 42.5637 32.22 42.5262 32.1727C42.4888 32.1255 43.5317 28.7752 43.8631 27.922C44.1952 27.0688 44.0209 25.474 43.9423 25.444C43.8631 25.4145 43.2119 23.5675 43.2119 23.5675Z" fill="#E3B19B"/>
<path d="M30.0994 20.528C30.0994 20.528 30.3395 23.4731 31.1411 24.7947C32.4271 26.9142 31.8679 27.6429 31.8679 27.6429C31.8679 27.6429 30.4297 24.5001 30.1179 23.7211C29.8067 22.9422 30.0994 20.528 30.0994 20.528Z" fill="#E3B19B"/>
<path d="M33.4396 23.5221C33.4396 23.5221 32.684 29.1453 34.8803 31.1832C37.0766 33.2218 32.2685 31.5159 32.1966 31.279C32.1248 31.0421 32.1248 28.1264 32.3145 27.2732C32.5042 26.42 32.765 24.5509 32.7884 24.4072C32.8123 24.2636 33.4396 23.5221 33.4396 23.5221Z" fill="#E3B19B"/>
<path d="M34.0176 30.995C32.0263 26.4202 33.591 23.1178 33.591 23.1178C33.591 23.1178 32.0503 23.8605 31.3867 27.5582" fill="#A6A6A6"/>
<path d="M34.0197 31.3286C33.8301 28.0575 36.4124 26.8648 36.4124 26.8648L38.3454 26.9415C38.3454 26.9415 40.7509 28.2005 40.9406 30.1911C41.1303 32.1824 36.769 33.6519 36.769 33.6519L34.0197 31.3286Z" fill="#A6A6A6"/>
<path d="M36.1055 26.5953C36.1368 26.5953 36.4578 26.8715 37.3589 26.8641C38.2594 26.8562 38.7996 26.6585 38.7996 26.6585C38.7996 26.6585 38.3097 27.1324 37.4013 27.1324C36.4928 27.1324 36.1055 26.5953 36.1055 26.5953Z" fill="#E3B19B"/>
<path d="M47.0162 16.3181C47.0162 16.3181 47.7693 20.8647 47.0886 23.3409C46.6515 24.9319 45.5645 25.2861 45.5645 25.2861C45.5645 25.2861 47.8786 25.9914 47.9258 25.7563C47.9731 25.5212 48.3236 24.3838 48.5434 23.3722C48.7631 22.3606 48.9761 20.2042 48.8226 19.7973C48.6686 19.3903 47.0162 16.3181 47.0162 16.3181Z" fill="#E3B19B"/>
<path d="M46.5039 12.9256C46.5039 12.9256 47.6904 21.6094 48.5437 22.9684C49.3969 24.3274 50.2624 24.6355 50.2624 24.6355C50.2624 24.6355 49.6007 18.4715 49.1268 17.2868C48.6529 16.1015 46.5039 12.9256 46.5039 12.9256Z" fill="#A6A6A6"/>
<path opacity="0.5" d="M35.3129 18.8016C34.8765 16.6188 32.1523 16.0308 32.1523 16.0308C32.1523 16.0308 34.0927 15.8552 35.1914 16.6207C36.2908 17.3861 35.3129 18.8016 35.3129 18.8016Z" fill="#EDCBBC"/>
<path opacity="0.5" d="M39.8949 19.0463C39.8949 19.0463 39.7758 14.5162 44.0597 16.7978C44.0603 16.7978 41.7419 16.2742 39.8949 19.0463Z" fill="#EDCBBC"/>
<path d="M39.6836 16.7993C39.6836 16.7993 42.0775 15.6852 43.3573 15.8159C44.6372 15.9467 45.704 16.7993 45.704 16.7993C45.704 16.7993 45.3363 15.0689 43.5114 15.01C41.6865 14.9504 39.6836 16.7993 39.6836 16.7993Z" fill="#A6A6A6"/>
<path d="M30.666 15.3753C30.666 15.3753 31.9814 15.1383 33.1311 15.5054C34.2808 15.8731 35.4066 16.6195 35.4066 16.6195C35.4066 16.6195 34.2808 15.328 32.8586 14.9008C31.4364 14.4736 30.666 15.3753 30.666 15.3753Z" fill="#A6A6A6"/>
<path d="M42.6484 28.3752C44.9067 25.284 42.711 23.1178 42.711 23.1178C42.711 23.1178 44.5758 23.3547 45.9821 24.9979C47.3884 26.6411 47.4516 27.2415 47.4516 27.2415L42.6484 28.3752Z" fill="#A6A6A6"/>
<path d="M30.2196 18.8669C30.2196 18.8669 29.4289 24.1575 31.6725 26.3058C32.9848 27.5623 33.3544 29.9047 33.3544 29.9047L34.0179 30.9949L37.5732 32.109L40.4889 31.2797C40.4889 31.2797 43.593 27.7244 43.8312 25.6386C44.0687 23.5528 45.2061 25.781 45.2061 25.781L45.9648 25.3072C45.9648 25.3072 48.0236 24.5798 47.6995 20.081C47.5018 17.3378 49.9111 21.7144 49.9111 21.7144C49.9111 21.7144 50.2763 25.8142 51.3751 27.1057C51.8913 27.7127 53.3123 28.1037 53.3123 28.1037C53.3123 28.1037 51.6691 28.949 49.8362 28.728C48.0033 28.507 47.4503 27.9693 47.4503 27.9693C47.4503 27.9693 47.4503 31.3349 45.0803 34.8116C44.3603 35.868 42.4838 37.9581 41.7619 38.5093L36.5229 43.0529L33.3501 38.2399C31.3637 35.2266 30.2404 31.7259 30.1121 28.1191C30.1091 28.0356 30.1078 27.9902 30.1078 27.9902C30.1078 27.9902 28.1718 29.2504 25.7656 28.1664C25.7656 28.1664 28.0963 26.908 28.4787 24.9247C28.8655 22.9206 29.3847 20.9441 30.1465 19.0498L30.2196 18.8669Z" fill="#A6A6A6"/>
<path d="M76.8428 71.4236C76.8428 71.4236 75.4205 74.1735 70.3491 76.875C65.2764 79.5777 59.1609 79.7667 59.1609 79.7667C59.1609 79.7667 57.6766 78.2978 56.1752 76.5177C55.0317 75.1612 53.8783 73.6248 53.3639 72.418C53.2135 72.0644 53.1177 71.7391 53.0926 71.4555C52.8716 68.9278 56.1267 68.0746 62.6051 67.5368C69.0834 66.9991 73.1113 62.0744 73.0972 62.3856C72.7657 69.7018 67.8827 72.5285 67.8827 72.5285C72.4343 73.855 76.8428 71.4236 76.8428 71.4236Z" fill="url(#paint8_linear_96_2468)"/>
<path d="M25.006 71.7314C24.9692 72.1605 24.7691 72.6828 24.464 73.2549C24.464 73.2549 24.464 73.2562 24.4628 73.2562C23.8072 74.4844 22.6637 75.9416 21.5858 77.1914C20.2084 78.788 18.9384 80.0432 18.9384 80.0432C18.9384 80.0432 12.8234 79.8536 7.75076 77.1515C2.6781 74.4488 1.25586 71.7001 1.25586 71.7001C1.25586 71.7001 5.66436 74.1315 10.2165 72.8038C10.2165 72.8038 5.33351 69.9771 5.00082 62.6609C4.9867 62.3509 9.01524 67.2756 15.4936 67.8121C21.9725 68.3492 25.2282 69.2024 25.006 71.7314Z" fill="#EAC3AD"/>
<path d="M25.006 71.7314C24.9692 72.1605 24.7691 72.6828 24.464 73.2549C24.464 73.2549 24.464 73.2562 24.4628 73.2562C23.8072 74.4844 22.6637 75.9416 21.5858 77.1914C20.2084 78.788 18.9384 80.0432 18.9384 80.0432C18.9384 80.0432 12.8234 79.8536 7.75076 77.1515C2.6781 74.4488 1.25586 71.7001 1.25586 71.7001C1.25586 71.7001 5.66436 74.1315 10.2165 72.8038C10.2165 72.8038 5.33351 69.9771 5.00082 62.6609C4.9867 62.3509 9.01524 67.2756 15.4936 67.8121C21.9725 68.3492 25.2282 69.2024 25.006 71.7314Z" fill="url(#paint9_linear_96_2468)"/>
<path d="M62.7665 72.5995L62.0833 76.2954L56.8688 78.054C56.8688 78.054 54.1336 75.2212 53.3633 72.4172V72.4141C53.9888 72.931 55.4018 73.2723 59.0651 71.92C61.9765 70.8464 62.7665 72.5995 62.7665 72.5995Z" fill="url(#paint10_linear_96_2468)"/>
<path d="M15.2597 71.9361L15.2363 73.3313L22.9724 75.4938C22.9724 75.4938 25.6431 72.7641 24.9023 70.7839C24.839 71.9355 24.3498 74.0262 18.3454 71.5389C15.2369 70.2511 15.2597 71.9361 15.2597 71.9361Z" fill="url(#paint11_linear_96_2468)"/>
<path d="M66.9115 81.8049C65.7176 78.7211 64.7428 76.5236 64.0394 75.0504C64.0394 75.0504 63.1806 72.0856 61.751 71.5056C60.6424 71.0556 58.9256 71.9721 58.9256 71.9721C58.9256 71.9721 61.7854 70.9783 62.3213 72.6C62.8025 74.056 58.556 75.4107 58.3013 75.4911C54.9762 76.5046 49.1786 77.3565 39.0726 77.1914C26.6328 76.9889 20.5252 75.1013 17.6439 73.646C13.7228 71.2318 17.1264 71.1403 17.1264 71.1403C15.1775 70.6628 15.2408 72.05 15.2408 72.0512C15.1229 72.7037 14.4888 76.0184 13.4134 78.2687C12.2164 80.7743 9.92441 84.7397 12.9604 86.3743C14.099 86.9869 16.9803 87.6799 20.5461 88.3072C30.7976 90.1094 40.9147 90.5692 51.2349 89.2175C54.4809 88.7921 57.79 88.2636 60.3705 87.6363C67.9783 85.7875 68.1876 85.1 66.9115 81.8049Z" fill="#F9D3C0"/>
<path d="M18.3174 84.6296C18.1934 84.6093 17.7988 84.5215 17.1598 84.3552C17.0315 84.322 16.9191 84.2938 16.8234 84.2754C16.5674 84.2257 16.3194 84.2011 16.0794 84.2023C16.0616 84.1986 16.0524 84.1968 16.034 84.1931C15.8787 84.1618 15.7676 83.9985 15.7031 83.7039C15.6743 83.5891 15.6657 83.5062 15.6761 83.4541C15.6811 83.4301 15.6909 83.3068 15.7062 83.0827C15.7443 82.5186 15.7787 82.1693 15.8063 82.0367C15.8143 81.9987 15.821 81.9778 15.8271 81.9741C16.0549 82.0509 16.1684 82.0889 16.3962 82.1644C16.5103 82.2074 16.5404 82.3664 16.4852 82.6408C16.4747 82.6929 16.4367 82.7936 16.3704 82.9434C16.3501 82.9937 16.3329 83.0502 16.3213 83.1109C16.2728 83.3651 16.3053 83.5124 16.4072 83.5351C16.4459 83.5437 16.8584 83.5897 17.6404 83.6634C17.6913 83.6683 17.7368 83.672 17.7779 83.6744C17.8933 82.9532 18.0025 82.2295 18.1149 81.5089C18.2186 80.841 18.3187 80.3843 18.3181 80.226C18.3181 80.1658 18.2358 79.9694 18.1081 79.6692C18.0326 79.4875 17.9995 79.3586 18.0148 79.2966C18.0338 79.2211 18.1302 79.1886 18.2769 79.2138C18.4285 79.2402 18.6274 79.3752 18.8521 79.6091C19.0976 79.8644 19.2106 80.0897 19.1823 80.2591C19.1768 80.2923 19.1694 80.3156 19.1621 80.3291C19.0835 80.4868 19.0276 80.6587 18.9939 80.8441C18.9626 81.0153 18.9018 81.391 18.8128 81.9686C18.7029 82.6849 18.625 83.1754 18.5777 83.4369C18.5329 83.6843 18.4838 83.8844 18.4304 84.0366C18.5286 84.2361 18.5771 84.4031 18.555 84.5086C18.5378 84.6032 18.4463 84.6504 18.3174 84.6296Z" fill="#B58A83"/>
<path d="M19.4636 81.4013C19.4967 81.4056 19.5587 81.421 19.6373 81.4468C19.6882 81.4633 19.7275 81.4774 19.752 81.4817C19.7766 81.3093 19.8104 81.0766 19.8503 80.785C19.8681 80.6561 19.881 80.5647 19.8902 80.5125C19.8717 80.4161 19.8429 80.2909 19.7864 80.2074C19.7336 80.1289 19.668 80.0294 19.6575 79.9196C19.5875 79.7501 19.5556 79.6354 19.5673 79.5869C19.5857 79.5114 19.6882 79.4739 19.8355 79.5015C19.9227 79.5181 20.0522 79.6212 20.1768 79.6789C20.5003 79.8281 20.9637 79.8637 21.2676 79.9128C21.3541 79.9269 21.553 79.9226 21.8636 79.8981C21.998 79.8901 22.1116 79.8925 22.2031 79.9067C22.2509 79.914 22.2872 79.922 22.3105 79.9306C22.3663 79.9539 22.4326 80.0847 22.5241 80.1829C22.6456 80.3142 22.8107 80.4505 22.8341 80.596C22.8396 80.6604 22.8371 80.7261 22.8273 80.793C22.8144 80.879 22.7359 81.3492 22.5898 82.2024C22.4468 83.0366 22.3682 83.4969 22.3553 83.5829C22.3516 83.6068 22.3565 83.6762 22.3706 83.7903C22.3958 84.0678 22.4026 84.2722 22.3817 84.3931C22.3473 84.5932 22.2503 84.6939 22.1165 84.6767C21.9232 84.6515 21.7623 84.4846 21.6439 84.1875C21.5948 84.0727 21.5745 83.9886 21.5825 83.9358C21.5837 83.9266 21.5929 83.8174 21.6095 83.6099C21.6439 83.1851 21.6764 82.8328 21.704 82.5529C21.6212 82.5302 21.5027 82.5013 21.3541 82.4614C21.1571 82.4086 21.0319 82.373 20.9828 82.3657C20.9134 82.3546 20.7219 82.3362 20.4076 82.308C20.3524 82.7008 20.3076 82.9997 20.2738 83.2048C20.2136 83.5675 20.1075 83.8677 20.0289 84.0758C19.9301 84.3354 19.7748 84.6558 19.5182 84.9456C19.3518 85.1279 19.2088 85.2242 19.1388 85.204C19.0959 85.1917 19.0664 85.1401 19.0664 85.0812C19.0695 85.0622 19.1198 84.9529 19.2168 84.7541C19.2665 84.6448 19.299 84.5496 19.3126 84.4686C19.4421 83.7038 19.7913 82.4209 19.6514 82.1569C19.598 82.0563 19.296 81.8144 19.3512 81.5302C19.3672 81.4412 19.4114 81.3946 19.4636 81.4013ZM20.4856 81.6573C20.5095 81.6911 20.7759 81.7132 20.9772 81.7457C21.0656 81.7598 21.2596 81.7573 21.5592 81.7359C21.6512 81.726 21.7267 81.723 21.7863 81.7273C21.8403 81.1533 21.906 80.7194 21.8869 80.6936C21.8698 80.6703 21.6789 80.6451 21.5285 80.6003C21.3965 80.561 21.3099 80.5358 21.2713 80.5297C21.208 80.5193 21.0337 80.5039 20.7489 80.4806C20.7483 80.4855 20.7477 80.4941 20.7483 80.5064C20.7489 80.5187 20.7483 80.5272 20.7477 80.5322C20.7422 80.5653 20.7354 80.5892 20.7286 80.6027C20.6525 80.7617 20.5985 80.9342 20.5678 81.1202C20.5304 81.3436 20.4641 81.6278 20.4856 81.6573Z" fill="#B58A83"/>
<path d="M26.0639 81.2952C25.9681 81.2854 25.6281 81.2179 25.0505 81.0902C24.9737 81.0705 24.916 81.0583 24.8774 81.0534C24.7705 81.0399 24.6048 81.0294 24.3844 81.0178C24.2574 81.011 24.1635 81.0055 24.1039 81.0018C24.1082 81.0804 24.1039 81.1651 24.0917 81.2565C24.08 81.3431 24.0573 81.4554 24.0235 81.5948C23.9898 81.7341 23.9664 81.8427 23.9572 81.9189C23.9253 82.1711 23.9683 82.3135 24.0745 82.3301C24.1131 82.3363 24.525 82.3559 25.307 82.3792C25.4967 82.3835 25.6305 82.3897 25.7091 82.3989C25.7631 82.4056 25.803 82.4136 25.8263 82.4203C25.892 82.4394 25.9853 82.5468 26.0958 82.7444C26.1916 82.9151 26.2376 83.0575 26.2284 83.1612C26.2253 83.1944 26.2137 83.2226 26.1959 83.2453C26.2106 83.2908 26.2155 83.3349 26.2106 83.3785C26.2063 83.4172 26.2008 83.443 26.194 83.4571C26.1695 83.5418 26.1197 83.6523 26.0577 83.7843C25.9669 83.9776 25.9172 84.1452 25.9024 84.2698C25.8816 84.4478 25.8681 84.5847 25.8619 84.6811C25.9049 84.7934 25.9258 84.8763 25.9184 84.9211C25.9104 84.9665 25.8803 85.007 25.8361 85.0359C25.8312 85.1666 25.8288 85.3857 25.8294 85.692C25.8312 85.7215 25.8306 85.7504 25.8269 85.7792C25.8104 85.8308 25.7539 85.8559 25.6649 85.848C25.3132 85.816 25.1174 85.6122 25.1026 85.2691C25.102 85.1912 25.1069 85.1065 25.1186 85.0156C25.1217 84.9923 25.1229 84.9812 25.1253 84.9579C25.04 84.9426 24.9418 84.9229 24.8301 84.8996C24.7184 84.8763 24.6275 84.8548 24.5582 84.8358C24.5164 84.8278 24.4956 84.8235 24.4532 84.8149C24.3476 84.8014 24.1807 84.7922 23.9591 84.7799C23.7381 84.7676 23.5742 84.7504 23.4735 84.7363C23.2274 84.7026 23.0782 84.632 23.034 84.5288C22.9947 84.438 22.9874 84.2747 23.023 84.066C23.0377 83.9776 23.0825 83.9304 23.1408 83.9359C23.1795 83.9396 23.2102 83.9482 23.2298 83.9555C23.662 84.0697 24.061 84.1495 24.4262 84.1968C24.5164 84.2084 24.7184 84.198 25.0326 84.1636C25.1302 84.1513 25.2125 84.147 25.2782 84.1501C25.2812 84.1268 25.2825 84.1157 25.2849 84.0924C25.2898 84.0544 25.2978 83.7996 25.3101 83.3282C25.2874 83.2668 25.2616 83.2079 25.234 83.1508C25.0136 83.0992 24.8645 83.0679 24.7853 83.0581C24.4139 83.0108 24.0806 82.9955 23.786 83.0139C23.7712 83.0121 23.7639 83.0109 23.7485 83.009C23.5951 82.9881 23.4772 82.8328 23.3974 82.5431C23.363 82.4308 23.3495 82.3485 23.3569 82.2957C23.36 82.2718 23.3612 82.1325 23.363 81.879C23.3661 81.3148 23.3778 80.9484 23.3913 80.7845C23.2599 80.663 23.2053 80.4856 23.2421 80.272C23.2575 80.1836 23.301 80.1363 23.3569 80.1418C23.3943 80.1455 23.4238 80.1541 23.4428 80.1615C23.8602 80.275 24.3286 80.3659 24.8467 80.4334C24.9338 80.4444 25.1321 80.434 25.4408 80.3996C25.5753 80.3874 25.6882 80.3861 25.7803 80.3978C25.8337 80.4045 25.8724 80.4119 25.8957 80.4193C25.9601 80.4383 26.051 80.5451 26.159 80.7428C26.2523 80.9134 26.3014 81.062 26.2879 81.1596C26.2738 81.2541 26.1885 81.3075 26.0639 81.2952Z" fill="#B58A83"/>
<path d="M26.5065 84.5354C26.5304 84.5366 26.5746 84.5464 26.6335 84.5568C26.736 84.5746 26.8256 84.5851 26.8962 84.5924C26.9355 84.5967 26.9552 84.5986 26.9938 84.6029C26.8901 84.4316 26.8392 84.2972 26.8465 84.2076C26.8477 84.1892 26.8508 83.9178 26.8588 83.3992C26.8698 82.6687 26.8827 81.9333 26.9134 81.2017C26.8011 81.0138 26.7428 80.8512 26.7581 80.7394C26.7716 80.6455 26.8582 80.5927 26.9865 80.6044C27.1154 80.6161 27.6298 80.7045 28.5278 80.8444C28.634 80.8598 28.7138 80.8696 28.7672 80.8745C28.9028 80.8874 29.1152 80.8954 29.3964 80.9033C29.672 80.9113 29.8788 80.9236 30.0102 80.9346C30.4184 80.969 30.6516 81.1077 30.7112 81.3545C30.7296 81.4288 30.7357 81.5116 30.729 81.6031C30.7253 81.6516 30.7149 81.6872 30.6989 81.7099C30.7277 81.7799 30.7406 81.8394 30.7369 81.8873C30.7345 81.9211 30.7302 81.945 30.7241 81.9591C30.6621 82.1242 30.624 82.3004 30.6093 82.4889C30.5958 82.6626 30.581 82.9431 30.5669 83.3292C30.5491 83.8123 30.5313 84.1849 30.5111 84.4451C30.4828 84.8116 30.4036 85.1203 30.3435 85.3339C30.268 85.6016 30.1415 85.9343 29.912 86.2455C29.7628 86.4419 29.629 86.5505 29.5578 86.5364C29.5142 86.5278 29.4804 86.4787 29.4749 86.4204C29.4768 86.4014 29.5167 86.2878 29.5958 86.081C29.6357 85.968 29.6603 85.8692 29.6664 85.7882C29.7456 84.6728 29.7904 83.5281 29.8518 82.3974C29.8629 82.2089 29.8905 82.0401 29.8819 81.9487C29.8757 81.8769 29.8052 81.7455 29.7198 81.5927C29.5787 81.5755 29.3841 81.5515 29.1355 81.519C29.1723 81.6 29.1883 81.6669 29.184 81.7197C29.1821 81.7388 29.1852 81.9321 29.1913 82.2955C29.2067 83.1972 29.2073 83.7122 29.1962 83.8325C29.1938 83.8614 29.1895 83.8779 29.1846 83.8822C29.1797 83.8816 29.0943 83.8681 28.9323 83.838C28.7015 83.7945 28.5744 83.7687 28.5548 83.7668C28.4369 83.7362 28.3897 83.603 28.4124 83.3672C28.4191 83.2948 28.4455 83.0738 28.491 82.7043C28.5352 82.3446 28.5609 82.1279 28.5677 82.0561C28.5695 82.0371 28.5646 81.9831 28.5536 81.8947C28.5266 81.7124 28.5131 81.5724 28.5124 81.4754C28.4185 81.476 28.2816 81.4859 28.1116 81.4945C27.9999 81.5 27.9109 81.5012 27.8513 81.5049C27.8526 81.5393 27.8501 81.5896 27.8434 81.6571C27.8348 81.7437 27.7894 82.1107 27.7163 82.7522C27.6451 83.3795 27.6083 83.7374 27.5997 83.819C27.5972 83.843 27.6052 83.9117 27.6242 84.0259C27.666 84.307 27.6813 84.5102 27.6684 84.6354C27.6666 84.6526 27.666 84.6612 27.6641 84.679C27.8428 84.7649 27.9667 84.8963 28.0361 85.0731C28.0594 85.1479 28.0717 85.2253 28.0613 85.2867C28.0558 85.318 28.0306 85.3395 27.9944 85.3456C27.9741 85.3438 27.9354 85.3253 27.8777 85.2904C27.7863 85.2376 27.7151 85.2087 27.6647 85.2038C27.5991 85.1971 27.4788 85.2007 27.313 85.2044C27.178 85.2075 27.0785 85.2044 27.0227 85.2032C26.8005 85.2769 26.682 85.3125 26.6667 85.3106C26.6212 85.3057 26.582 85.2455 26.5488 85.1301C26.4702 84.8251 26.4279 84.6618 26.4199 84.6415C26.4162 84.6268 26.4156 84.6145 26.4162 84.6047C26.4297 84.5587 26.4629 84.5329 26.5065 84.5354Z" fill="#B58A83"/>
<path d="M31.4132 81.9153C31.407 81.8564 31.3021 81.6704 31.1419 81.3868C31.0467 81.215 30.9982 81.091 31.0068 81.0277C31.0173 80.9504 31.1112 80.9068 31.264 80.916C31.4169 80.9246 31.6256 81.0388 31.8785 81.25C32.1467 81.474 32.2818 81.6784 32.2732 81.8497C32.2713 81.8828 32.267 81.9074 32.2615 81.9215C32.202 82.0872 32.1657 82.264 32.1541 82.4524C32.143 82.6262 32.1307 82.9288 32.1185 83.3584C32.1037 83.8949 32.089 84.2939 32.0724 84.5548C32.0491 84.9212 31.9742 85.2312 31.9171 85.4461C31.8453 85.7149 31.7232 86.0488 31.4979 86.3631C31.3518 86.5614 31.2186 86.6719 31.1474 86.659C31.1038 86.651 31.067 86.6025 31.0553 86.5436C31.0565 86.524 31.0946 86.4079 31.1713 86.2029C31.2137 86.0906 31.2407 85.9911 31.2456 85.9101C31.3131 84.7524 31.3573 83.5549 31.3942 82.3941C31.4003 82.1928 31.423 82.0111 31.4132 81.9153Z" fill="#B58A83"/>
<path d="M32.5781 85.0511C32.6021 85.0511 32.6469 85.0585 32.7058 85.0658C32.8095 85.0781 32.8992 85.0843 32.9698 85.0879C33.009 85.0904 33.0287 85.091 33.068 85.0935C32.9556 84.9277 32.8979 84.7958 32.9004 84.7068C32.901 84.6877 32.89 84.417 32.8709 83.899C32.8439 83.1691 32.8194 82.4344 32.812 81.7015C32.6905 81.5198 32.6236 81.3602 32.6334 81.2478C32.642 81.1533 32.7254 81.0962 32.8544 81.1011C33.3031 81.1189 33.7162 81.1582 34.0642 81.1871C34.3779 81.2135 34.713 81.2313 35.0635 81.2448C35.4821 81.2613 35.7258 81.3945 35.7958 81.6481C35.813 81.7162 35.8204 81.7942 35.8179 81.8807C35.8161 81.9292 35.8081 81.9648 35.7921 81.9887C35.824 82.0575 35.8394 82.1164 35.8382 82.1643C35.8369 82.1981 35.8339 82.222 35.8283 82.2367C35.7737 82.4043 35.7436 82.5823 35.7375 82.7708C35.732 82.9445 35.7295 83.2256 35.7326 83.6123C35.7363 84.0954 35.735 84.4686 35.7264 84.7295C35.7154 85.0775 35.646 85.3906 35.5914 85.625C35.5282 85.8957 35.4165 86.234 35.201 86.555C35.0611 86.7582 34.9322 86.8723 34.8603 86.8613C34.8161 86.8545 34.7805 86.8073 34.7726 86.749C34.7732 86.7293 34.8088 86.6151 34.8781 86.4046C34.9131 86.2898 34.9334 86.1904 34.9352 86.1093C34.9647 84.9916 34.9579 83.8456 34.969 82.7137C34.9714 82.5252 34.9892 82.3589 34.9794 82.2643C34.9714 82.1913 34.9058 82.0753 34.8229 81.9458C34.7541 81.9427 34.4399 81.9574 33.8788 81.9832C33.8346 81.9808 33.7953 81.9814 33.761 81.9844C33.7604 81.9943 33.7573 82.0157 33.7579 82.0421C33.7585 82.0691 33.7628 82.0931 33.7622 82.1078C33.7579 82.195 33.7321 82.5639 33.6922 83.2078C33.6536 83.8376 33.6351 84.1973 33.6308 84.2795C33.6296 84.3035 33.6413 84.3722 33.6658 84.4846C33.7223 84.7632 33.7475 84.9652 33.7413 85.091C33.7407 85.1082 33.7401 85.1168 33.7395 85.1346C33.9224 85.2113 34.0532 85.3359 34.1311 85.509C34.1581 85.5827 34.1747 85.6588 34.1673 85.7214C34.1636 85.7527 34.1397 85.776 34.1035 85.784C34.0832 85.7828 34.0433 85.7668 33.9838 85.7349C33.8899 85.687 33.8174 85.6619 33.7671 85.6594C33.7014 85.6563 33.5817 85.6662 33.4166 85.6784C33.2822 85.6883 33.1827 85.6907 33.1269 85.6919C32.909 85.7773 32.7924 85.819 32.777 85.8178C32.7316 85.8153 32.6892 85.757 32.65 85.6435C32.5554 85.3427 32.5051 85.1819 32.4959 85.1622C32.4916 85.1475 32.4897 85.1352 32.4903 85.1254C32.5032 85.0781 32.5345 85.0505 32.5781 85.0511Z" fill="#B58A83"/>
<path d="M36.2387 83.3298C36.2719 83.3292 36.3375 83.3341 36.4167 83.3494C36.4591 83.3574 36.491 83.366 36.5057 83.366C36.5014 83.1481 36.4898 82.8387 36.4775 82.444C36.4689 82.1506 36.4658 81.9622 36.4628 81.8849C36.3234 81.7799 36.2522 81.6099 36.2639 81.3932C36.2688 81.3036 36.3044 81.2514 36.3553 81.2508C36.3922 81.2502 36.4235 81.2551 36.4425 81.2606C36.8691 81.325 37.3461 81.3619 37.8721 81.3699C37.9599 81.3711 38.1551 81.3379 38.4577 81.268C38.5897 81.2403 38.7014 81.2262 38.7941 81.2268C38.8426 81.2268 38.8794 81.2305 38.9033 81.2348C38.9696 81.2465 39.0771 81.3428 39.209 81.5258C39.3214 81.6817 39.387 81.8259 39.3846 81.9248C39.3821 82.0193 39.3011 82.0819 39.171 82.0837C39.0746 82.085 38.7296 82.0567 38.1428 81.9966C38.0642 81.9861 38.0059 81.9806 37.9666 81.98C37.8635 81.9788 37.7009 81.9874 37.4811 82.0015C37.354 82.0095 37.2601 82.0144 37.2018 82.0181C37.2147 82.096 37.2208 82.1807 37.219 82.2722C37.2184 82.3059 37.2123 82.4183 37.2049 82.6055C37.1914 82.9468 37.1828 83.2218 37.1736 83.4243C37.2528 83.4311 37.3694 83.4354 37.5228 83.4378C37.6119 83.4391 37.8114 83.4065 38.1195 83.3378C38.2539 83.3102 38.3675 83.2973 38.462 83.2979C38.5117 83.2985 38.5492 83.3016 38.5731 83.3059C38.64 83.3175 38.7499 83.4145 38.8837 83.598C38.9979 83.7546 39.0642 83.8994 39.0611 83.9976C39.058 84.0879 38.9758 84.1474 38.8432 84.1493C38.7548 84.1505 38.4019 84.121 37.7893 84.059C37.7095 84.0529 37.6524 84.0498 37.6174 84.0492C37.4676 84.0468 37.1852 84.0296 37.1533 84.0627C37.0324 84.1873 37.122 84.8552 37.122 84.8748C37.1196 85.1289 37.1773 85.2652 37.2804 85.2695C37.3148 85.2707 37.7346 85.2437 38.5357 85.1774C38.7216 85.1645 38.8555 85.1578 38.9359 85.1584C38.996 85.1584 39.0396 85.1621 39.0642 85.1664C39.1372 85.178 39.2446 85.2738 39.3735 85.4573C39.4846 85.6151 39.5503 85.755 39.5479 85.8489C39.5454 85.9435 39.4619 86.0061 39.3275 86.0085C39.198 86.0104 38.8002 85.9932 38.1569 85.9435C38.0262 85.933 37.9114 85.9263 37.815 85.9244C37.5566 85.9208 37.3105 85.9404 37.0766 85.9846C37.0582 85.984 37.049 85.984 37.0312 85.9834C36.874 85.9803 36.7378 85.8391 36.623 85.5604C36.5751 85.453 36.5518 85.3726 36.553 85.3192C36.5567 85.1793 36.5462 84.7631 36.5241 84.0707C36.3302 84.051 36.2111 83.9774 36.1712 83.8509C36.1436 83.7638 36.1282 83.63 36.1374 83.4655C36.143 83.3801 36.1816 83.3304 36.2387 83.3298Z" fill="#B58A83"/>
<path d="M43.2648 85.193C43.2949 85.1918 43.3102 85.1918 43.3403 85.1905C43.7731 85.1764 44.0278 85.0328 44.1027 84.7639C44.1334 84.6565 44.145 84.5037 44.137 84.3054C44.1334 84.209 44.1291 84.0543 44.1186 83.8487C44.107 83.624 44.0953 83.4528 44.091 83.3417C44.0646 82.6751 43.9934 82.2012 43.8799 81.9201C43.832 81.82 43.7835 81.7666 43.7417 81.7654C43.6448 81.7635 43.4625 81.8624 43.2151 82.0453C43.0377 82.176 42.9051 82.2479 42.8308 82.246C42.7516 82.2436 42.7032 82.1552 42.6982 81.9962C42.6884 81.6531 42.743 81.418 42.8615 81.3019C42.9536 81.2117 43.096 81.1485 43.2789 81.1147C43.5048 81.0724 43.6755 81.0503 43.7872 81.046C44.2586 81.0282 44.56 81.3093 44.6944 81.8937C44.7441 82.1189 44.7773 82.4173 44.7945 82.7892C44.8031 82.9728 44.8104 83.2435 44.8239 83.594C44.8374 83.9445 44.8522 84.2096 44.8601 84.384C44.8822 84.8621 44.8049 85.2004 44.6263 85.3962C44.4151 85.6282 44.0302 85.7596 43.487 85.7743C43.115 85.7847 42.7909 85.719 42.5251 85.5852C42.5251 85.595 42.5215 85.6055 42.5184 85.6147C42.5122 85.6313 42.5116 85.6466 42.5116 85.6509C42.484 85.9517 42.3729 86.269 42.1765 86.6023C42.0488 86.8129 41.9267 86.935 41.8542 86.9283C41.81 86.924 41.7689 86.8792 41.7523 86.8215C41.7517 86.8018 41.7787 86.6827 41.837 86.4716C41.869 86.3556 41.8868 86.2543 41.8843 86.1733C41.8475 85.0144 41.7836 83.8174 41.7167 82.6585C41.7051 82.4578 41.7112 82.2742 41.6928 82.1803C41.6811 82.122 41.5602 81.9458 41.3754 81.6782C41.265 81.5156 41.206 81.3965 41.2091 81.3326C41.2128 81.2547 41.3018 81.2031 41.4552 81.1982C41.6081 81.1933 41.826 81.2878 42.0967 81.4757C42.384 81.6745 42.5368 81.8661 42.5436 82.0379C42.5448 82.0711 42.5423 82.0962 42.538 82.1104C42.4932 82.281 42.4736 82.4602 42.4785 82.6487C42.4828 82.8224 42.4975 83.125 42.5245 83.5541C42.5577 84.0893 42.5792 84.4883 42.5859 84.7498C42.5884 84.8339 42.589 84.8763 42.5914 84.9603C42.8143 85.1218 43.0383 85.1997 43.2648 85.193Z" fill="#B58A83"/>
<path d="M45.426 82.0451C45.4125 81.9874 45.286 81.8155 45.0921 81.5534C44.9767 81.3945 44.9135 81.2772 44.9141 81.2134C44.9147 81.1354 45.0025 81.0808 45.1559 81.071C45.2179 81.0667 45.3075 81.0875 45.4223 81.1299C45.4653 81.1084 45.5083 81.0961 45.5518 81.0937C45.693 81.0863 46.0828 81.0875 46.7224 81.0906C46.8636 81.0912 46.9906 81.0876 47.1024 81.0802C47.3503 81.0636 47.6039 81.0188 47.8623 80.9464C47.8795 80.9451 47.8887 80.9445 47.9059 80.9433C48.0562 80.9323 48.2005 81.0593 48.3386 81.3251C48.3957 81.4276 48.4264 81.505 48.4307 81.5577C48.4313 81.5627 48.4356 81.594 48.4454 81.651C48.5301 82.1679 48.589 82.6246 48.6204 83.0193C48.624 83.0628 48.4957 83.1819 48.2361 83.3691C48.0249 83.5214 47.9151 83.6184 47.9132 83.6619C47.9132 83.665 47.9138 83.6662 47.9138 83.6693C47.9114 83.7037 47.893 83.7264 47.8592 83.7387C47.8389 83.7399 47.7984 83.7282 47.7364 83.7037C47.6388 83.6669 47.5652 83.6503 47.5155 83.654C47.451 83.6583 47.335 83.6822 47.1748 83.7135C47.0447 83.7387 46.9477 83.7528 46.893 83.7608C46.8642 83.7773 46.8495 83.7853 46.8206 83.8019C47.1128 84.1567 47.3737 84.4489 47.6014 84.6803C47.6665 84.7484 47.966 84.9731 48.5074 85.3487C48.7486 85.5145 48.9132 85.6305 48.977 85.6974C49.039 85.7625 49.0721 85.8306 49.0758 85.8785C49.0924 86.0853 49.0531 86.2879 48.9561 86.4849C48.9297 86.5402 48.9021 86.5831 48.8739 86.6077C48.8426 86.6347 48.8063 86.6507 48.7775 86.6519C48.7284 86.6531 48.6676 86.6218 48.6013 86.5635C48.136 86.1013 47.672 85.6391 47.2036 85.1799C47.1226 85.0983 46.963 84.9461 46.7279 84.7232C46.5622 84.5735 46.4511 84.4691 46.3922 84.4096C46.3934 84.4292 46.4001 84.4599 46.4051 84.4961C46.4094 84.5323 46.4093 84.5636 46.41 84.5833C46.4308 84.9307 46.3903 85.2487 46.3572 85.4875C46.3191 85.7631 46.2387 86.1093 46.0533 86.4493C45.9324 86.6642 45.8139 86.79 45.7415 86.7857C45.6973 86.7832 45.6543 86.7397 45.6365 86.682C45.6353 86.6623 45.6586 86.5426 45.7102 86.3296C45.7384 86.213 45.7532 86.1111 45.7476 86.0301C45.6728 84.873 45.5702 83.6785 45.4653 82.5227C45.4475 82.322 45.4475 82.1384 45.426 82.0451ZM46.2731 81.896C46.2743 81.9199 46.2731 81.9371 46.2688 81.9469C46.2301 82.1188 46.216 82.2986 46.227 82.4871C46.2344 82.6129 46.2528 82.8462 46.2829 83.1887C46.3075 83.1875 46.351 83.1881 46.4093 83.1887C46.5119 83.1893 46.6002 83.1844 46.6696 83.1801C46.7783 83.1733 46.8992 83.1611 47.0256 83.15C47.0981 83.1439 47.1545 83.1414 47.1889 83.139C47.1938 83.1383 47.2067 83.1347 47.2257 83.1291C47.2534 83.1218 47.2748 83.1187 47.2847 83.1181C47.389 83.1156 47.5063 83.1586 47.637 83.2464C47.7665 83.1789 47.8347 83.1261 47.8353 83.0941C47.8402 82.4797 47.7782 82.0973 47.7763 82.0734C47.7555 81.8155 47.6843 81.6824 47.5787 81.6879C47.5449 81.6897 47.1539 81.756 46.4044 81.8745C46.3553 81.8812 46.3118 81.8892 46.2731 81.896Z" fill="#B58A83"/>
<path d="M49.0758 82.7502C49.1083 82.7459 49.1728 82.7447 49.2544 82.7496C49.3078 82.7527 49.3496 82.7563 49.3741 82.7539C49.3545 82.5808 49.3275 82.3469 49.2919 82.0547C49.2759 81.9252 49.2655 81.8338 49.2612 81.781C49.2188 81.6926 49.1593 81.579 49.0832 81.5121C49.012 81.4495 48.9242 81.3703 48.8861 81.2666C48.7756 81.1205 48.7155 81.018 48.7149 80.9677C48.713 80.8897 48.8026 80.8277 48.9518 80.8173C49.0402 80.8105 49.1912 80.878 49.3256 80.902C49.6755 80.964 50.1316 80.8805 50.4373 80.851C50.5244 80.8424 50.7153 80.7878 51.0087 80.6847C51.1364 80.6423 51.2463 80.6165 51.339 80.6067C51.3875 80.6018 51.4237 80.6 51.4489 80.6024C51.5084 80.6104 51.606 80.7203 51.7196 80.7921C51.8699 80.8879 52.0645 80.9781 52.1235 81.1125C52.1449 81.1733 52.1597 81.2377 52.167 81.3046C52.1769 81.3912 52.2198 81.8657 52.2959 82.7281C52.3702 83.5709 52.4113 84.0362 52.4212 84.1227C52.4236 84.1467 52.4463 84.2123 52.4887 84.3198C52.5838 84.5819 52.6421 84.7777 52.6526 84.8998C52.6704 85.1024 52.6022 85.2239 52.469 85.2411C52.2763 85.2657 52.078 85.1454 51.8884 84.8882C51.8116 84.7893 51.7711 84.7132 51.7656 84.6604C51.7644 84.6506 51.7453 84.5432 51.7091 84.3382C51.6342 83.9189 51.5759 83.5697 51.5317 83.2922C51.4464 83.2916 51.3242 83.2934 51.1708 83.2928C50.9676 83.2916 50.8375 83.2898 50.7878 83.2947C50.7184 83.3014 50.5287 83.3321 50.2181 83.3855C50.2648 83.7796 50.2979 84.0798 50.317 84.2866C50.3507 84.6525 50.3249 84.9704 50.3022 85.1914C50.2734 85.4676 50.2046 85.8169 50.0303 86.1625C49.9167 86.381 49.8026 86.5111 49.7301 86.5093C49.6859 86.508 49.6442 86.4657 49.6289 86.4086C49.627 86.3896 49.6479 86.2711 49.6909 86.0538C49.7111 85.9354 49.7185 85.8353 49.7111 85.7537C49.6411 84.9809 49.6528 83.6519 49.4496 83.4322C49.3723 83.3487 49.0193 83.1915 49.0009 82.9024C48.9929 82.814 49.0236 82.757 49.0758 82.7502ZM50.1261 82.7379C50.158 82.7643 50.4201 82.7177 50.6226 82.698C50.7116 82.6894 50.8982 82.6373 51.1818 82.5403C51.2684 82.5071 51.3402 82.485 51.3991 82.474C51.3052 81.9056 51.2586 81.4691 51.2334 81.4483C51.2113 81.4299 51.0204 81.4544 50.8639 81.4495C50.7264 81.4452 50.6368 81.4428 50.5975 81.4464C50.5342 81.4526 50.3618 81.482 50.0813 81.5324C50.0819 81.5373 50.0837 81.5459 50.0874 81.5575C50.0911 81.5692 50.0929 81.5778 50.0935 81.5827C50.0966 81.6165 50.0966 81.6404 50.0929 81.6558C50.0598 81.8289 50.0518 82.0093 50.069 82.1971C50.0898 82.4236 50.0984 82.7146 50.1261 82.7379Z" fill="#B58A83"/>
<path d="M55.4412 80.964C55.346 80.9793 54.9992 81.0002 54.4087 81.0241C54.3295 81.0248 54.2706 81.0278 54.2319 81.0327C54.1251 81.0469 53.9618 81.0788 53.7464 81.1242C53.6218 81.1506 53.5291 81.1684 53.4714 81.1807C53.4953 81.2556 53.5131 81.339 53.5242 81.4299C53.5346 81.5164 53.5819 81.9541 53.6635 82.7429C53.7433 83.5126 53.7875 83.9392 53.7979 84.0196C53.8317 84.2713 53.9103 84.3984 54.0183 84.3867C54.0429 84.3842 54.4253 84.3038 55.1613 84.1362C55.1711 84.135 55.1809 84.1338 55.1913 84.132C55.1686 84.003 55.1336 83.8244 55.0888 83.5967C55.0544 83.4218 55.0342 83.3014 55.0256 83.2394C54.9918 83.1756 54.8648 83.0222 54.6469 82.7779C54.5167 82.6293 54.4431 82.5176 54.4388 82.4538C54.4333 82.3764 54.518 82.3144 54.6726 82.2911C54.8273 82.2684 55.0612 82.3334 55.3534 82.4844C55.6664 82.6459 55.8438 82.8208 55.8702 82.9902C55.8764 83.0283 55.877 83.0553 55.8739 83.07C55.8481 83.245 55.8481 83.423 55.8739 83.6047C55.8788 83.6384 55.9169 83.8207 55.9899 84.1522C56.2035 84.3271 56.3355 84.4966 56.3509 84.6353C56.3613 84.7298 56.2901 84.8004 56.155 84.8244C56.1311 84.828 56.1188 84.8293 56.0949 84.8329C56.1084 85.0361 56.0918 85.2405 56.0844 85.413C56.0716 85.6948 56.0157 86.0428 55.8567 86.397C55.7524 86.621 55.6437 86.7561 55.5707 86.7579C55.5259 86.7591 55.4792 86.7192 55.4565 86.6634C55.4541 86.6443 55.4676 86.5228 55.5019 86.3061C55.521 86.187 55.5265 86.0858 55.5154 86.0041C55.4811 85.75 55.4172 85.3756 55.3245 84.8808C55.2889 84.8808 55.2503 84.882 55.2097 84.8851C55.1692 84.8882 55.1324 84.8906 55.0993 84.8925C55.0661 84.8943 55.0342 84.8962 55.0041 84.898C54.9734 84.8998 54.9507 84.9017 54.936 84.9035C54.9237 84.9054 54.9176 84.906 54.9059 84.9072C54.5284 84.9569 54.1976 85.0281 53.9121 85.1214C53.8968 85.1233 53.8894 85.1245 53.8741 85.1263C53.7175 85.1454 53.5622 85.0257 53.4094 84.766C53.3468 84.6666 53.3124 84.5905 53.3057 84.5371C53.3032 84.518 53.2559 84.2431 53.1626 83.7139C53.0122 82.8619 52.8551 82.0075 52.7268 81.1506C52.5691 81.0665 52.4715 80.9094 52.4524 80.6933C52.4445 80.6043 52.4745 80.5472 52.5304 80.5386C52.5672 80.5331 52.5985 80.5331 52.6182 80.5355C53.0503 80.5386 53.5285 80.5073 54.0515 80.4398C54.1386 80.4287 54.3252 80.368 54.6107 80.2562C54.7371 80.2102 54.8464 80.1801 54.9384 80.1679C54.9912 80.1605 55.0311 80.158 55.0551 80.1593C55.122 80.1611 55.238 80.2415 55.3927 80.4048C55.5265 80.546 55.6118 80.6767 55.6235 80.7749C55.6339 80.8707 55.5652 80.9437 55.4412 80.964Z" fill="#B58A83"/>
<path d="M59.6053 84.282C59.4826 84.3053 59.0836 84.3581 58.4292 84.4201C58.2985 84.4324 58.1837 84.4453 58.0879 84.46C57.832 84.5005 57.592 84.5625 57.3685 84.646C57.3532 84.6485 57.3458 84.6497 57.3311 84.6515C57.1752 84.6755 57.0137 84.5601 56.848 84.3066C56.7823 84.209 56.7455 84.1335 56.7375 84.0807C56.7338 84.0567 56.6669 83.7357 56.5417 83.12C56.3741 82.2944 56.1875 81.4553 56.0549 80.6334C56.0488 80.596 56.0488 80.5733 56.0525 80.5677C56.0672 80.5659 56.0746 80.5647 56.0887 80.5622C56.1329 80.5604 56.1703 80.5604 56.1998 80.5604C56.0813 80.4315 56.0052 80.3105 55.9936 80.2172C55.9813 80.1184 56.0519 80.0423 56.1796 80.0214C56.3023 80.0006 56.6835 79.9625 57.3029 79.9073C57.4287 79.8962 57.5392 79.8839 57.6306 79.8692C57.8768 79.8293 58.1064 79.7667 58.32 79.682C58.3372 79.6789 58.3457 79.6777 58.3635 79.6746C58.5127 79.6495 58.668 79.7624 58.8307 80.0141C58.897 80.1104 58.935 80.1847 58.9436 80.2375C58.9479 80.2614 59.0203 80.58 59.1615 81.1932C59.3512 82.0182 59.566 82.8536 59.7226 83.6719C59.7299 83.7093 59.7305 83.732 59.7262 83.7375C59.7213 83.7381 59.7023 83.7381 59.6728 83.7394C59.628 83.7412 59.5918 83.7461 59.5667 83.7504C59.6968 83.8799 59.7815 83.9978 59.795 84.0862C59.8097 84.1801 59.7379 84.2568 59.6053 84.282ZM56.837 80.7807C56.8486 80.8231 56.8603 80.8851 56.8726 80.9661C56.8861 81.052 56.9456 81.4885 57.0506 82.2742C57.1531 83.0408 57.2096 83.4662 57.2231 83.5466C57.2642 83.7971 57.3464 83.9217 57.4545 83.9069C57.4938 83.902 57.9216 83.8001 58.7318 83.5921C58.8006 83.5755 58.8595 83.5608 58.9086 83.5479C58.8963 83.5055 58.8835 83.4417 58.8687 83.3557C58.8546 83.2698 58.7895 82.8371 58.6735 82.0575C58.56 81.292 58.4974 80.8679 58.4826 80.7881C58.4372 80.5334 58.3562 80.4075 58.2567 80.4216C58.2138 80.4278 57.8099 80.5346 57.0438 80.7273C56.964 80.7488 56.8947 80.7666 56.837 80.7807ZM58.1677 81.5087C58.1726 81.5314 58.1751 81.5744 58.1806 81.6315C58.1904 81.7309 58.2033 81.8163 58.2144 81.8832C58.2316 81.9881 58.2555 82.1041 58.2782 82.2257C58.2911 82.2957 58.2985 82.3497 58.304 82.3834C58.3046 82.3883 58.3101 82.4 58.3175 82.4178C58.3279 82.4442 58.3329 82.4645 58.3341 82.4737C58.355 82.6026 58.3058 82.7493 58.1831 82.9027C58.0843 83.0267 57.9511 83.1157 57.8228 83.1299C57.7902 83.1335 57.762 83.1176 57.7479 83.0906C57.7448 83.0715 57.7509 83.0292 57.7657 82.9629C57.7958 82.8653 57.8068 82.7922 57.7994 82.7444C57.7896 82.6824 57.7559 82.5743 57.711 82.4282C57.6736 82.3055 57.6515 82.2128 57.638 82.1606C57.5079 81.9759 57.4422 81.8758 57.4397 81.8617C57.433 81.8187 57.4852 81.7665 57.5956 81.7045C57.8498 81.5664 57.9996 81.483 58.045 81.4559C58.0499 81.4553 58.0542 81.4523 58.0585 81.4461C58.0665 81.4351 58.0732 81.4289 58.0781 81.4283C58.1235 81.4252 58.1561 81.4541 58.1677 81.5087Z" fill="#B58A83"/>
<path d="M60.1875 83.4142C60.2108 83.4087 60.2562 83.4056 60.3158 83.3989C60.4195 83.3866 60.5085 83.3713 60.5785 83.3584C60.6172 83.351 60.6368 83.3479 60.6755 83.3406C60.5275 83.2055 60.4398 83.0914 60.4213 83.0036C60.4177 82.9852 60.3434 82.7243 60.2034 82.2246C60.0064 81.5212 59.8106 80.8122 59.632 80.102C59.4705 79.9541 59.368 79.8141 59.3514 79.7024C59.3373 79.6085 59.4055 79.533 59.5331 79.5078C59.9751 79.4201 60.3876 79.3611 60.7338 79.3077C61.0462 79.2598 61.3777 79.1985 61.7233 79.1297C62.1358 79.0475 62.4052 79.1199 62.5335 79.3501C62.566 79.4127 62.5918 79.4863 62.6096 79.5717C62.6195 79.6189 62.6195 79.6558 62.6102 79.6828C62.6575 79.7423 62.6864 79.7957 62.6962 79.843C62.7029 79.8761 62.7054 79.9001 62.7035 79.9154C62.6894 80.091 62.7011 80.2714 62.7398 80.4562C62.7747 80.6268 62.8386 80.9006 62.9319 81.2757C63.0485 81.7446 63.1345 82.1074 63.1872 82.3634C63.2578 82.704 63.2634 83.0251 63.2646 83.2657C63.2664 83.5437 63.2363 83.8985 63.1007 84.2613C63.0117 84.4915 62.9122 84.6333 62.8392 84.6394C62.795 84.6431 62.749 84.6057 62.7275 84.551C62.7238 84.532 62.7312 84.4123 62.7496 84.1913C62.757 84.0716 62.7533 83.9704 62.7361 83.8906C62.5034 82.7967 62.2291 81.6845 61.9749 80.5814C61.9332 80.3973 61.9117 80.2315 61.8798 80.1419C61.8552 80.0732 61.7638 79.9756 61.6521 79.8694C61.5845 79.8829 61.2807 79.9707 60.7393 80.1272C60.6957 80.1352 60.6577 80.145 60.6245 80.156C60.6264 80.1659 60.6282 80.1873 60.6349 80.2131C60.6423 80.2389 60.6515 80.2616 60.654 80.2757C60.6699 80.3611 60.7313 80.7263 60.843 81.3616C60.9523 81.9834 61.0186 82.337 61.0339 82.418C61.0382 82.4419 61.0659 82.5058 61.1162 82.6089C61.2365 82.8667 61.3089 83.057 61.3323 83.181C61.3353 83.1982 61.3372 83.2067 61.3402 83.2239C61.5367 83.2559 61.6932 83.3461 61.8104 83.4959C61.854 83.5615 61.8878 83.6315 61.8951 83.6935C61.8988 83.7248 61.8804 83.7531 61.8479 83.769C61.8276 83.7727 61.7853 83.7666 61.7196 83.7494C61.6165 83.7248 61.5397 83.7175 61.49 83.7267C61.4249 83.7389 61.3102 83.7764 61.1518 83.8273C61.0229 83.8685 60.9265 83.8936 60.8719 83.909C60.6791 84.0428 60.5754 84.1109 60.5601 84.1134C60.5153 84.1214 60.46 84.0747 60.3956 83.9734C60.2335 83.7027 60.1457 83.5591 60.1328 83.5413C60.1255 83.5278 60.1206 83.5167 60.1187 83.5069C60.1206 83.4584 60.1451 83.424 60.1875 83.4142Z" fill="#B58A83"/>
<defs>
<linearGradient id="paint0_linear_96_2468" x1="38.601" y1="11.9135" x2="38.601" y2="89.116" gradientUnits="userSpaceOnUse">
<stop offset="2.23767e-07" stop-color="white" stop-opacity="0"/>
<stop offset="0.0731" stop-color="#DFE5E1" stop-opacity="0.0731"/>
<stop offset="0.1953" stop-color="#AFBEB4" stop-opacity="0.1953"/>
<stop offset="0.3212" stop-color="#859D8E" stop-opacity="0.3212"/>
<stop offset="0.4487" stop-color="#63826E" stop-opacity="0.4487"/>
<stop offset="0.5785" stop-color="#496D56" stop-opacity="0.5785"/>
<stop offset="0.7113" stop-color="#375E45" stop-opacity="0.7113"/>
<stop offset="0.8492" stop-color="#2C553A" stop-opacity="0.8492"/>
<stop offset="1" stop-color="#285237"/>
</linearGradient>
<linearGradient id="paint1_linear_96_2468" x1="37.2972" y1="26.5173" x2="37.2972" y2="89.7237" gradientUnits="userSpaceOnUse">
<stop offset="1.11884e-07" stop-color="white" stop-opacity="0"/>
<stop offset="0.0357" stop-color="#F7F7F8" stop-opacity="0.0357"/>
<stop offset="0.385" stop-color="#A9B2B6" stop-opacity="0.385"/>
<stop offset="0.6732" stop-color="#707F85" stop-opacity="0.6732"/>
<stop offset="0.8859" stop-color="#4D5F67" stop-opacity="0.8859"/>
<stop offset="1" stop-color="#40535C"/>
</linearGradient>
<linearGradient id="paint2_linear_96_2468" x1="24.5864" y1="59.9663" x2="12.7054" y2="59.9663" gradientUnits="userSpaceOnUse">
<stop stop-color="#94AA71"/>
<stop offset="0.1953" stop-color="#869D6A"/>
<stop offset="0.5675" stop-color="#607B57"/>
<stop offset="1" stop-color="#2C4C3E"/>
</linearGradient>
<linearGradient id="paint3_linear_96_2468" x1="49.9189" y1="70.1013" x2="63.6396" y2="70.1013" gradientUnits="userSpaceOnUse">
<stop stop-color="#94AA71"/>
<stop offset="0.219" stop-color="#829A68"/>
<stop offset="0.654" stop-color="#557152"/>
<stop offset="1" stop-color="#2C4C3E"/>
</linearGradient>
<linearGradient id="paint4_linear_96_2468" x1="74.6833" y1="23.0598" x2="74.6833" y2="14.4389" gradientUnits="userSpaceOnUse">
<stop stop-color="white" stop-opacity="0"/>
<stop offset="0.5764" stop-color="white"/>
</linearGradient>
<linearGradient id="paint5_linear_96_2468" x1="63.8086" y1="20.2412" x2="63.8086" y2="34.0649" gradientUnits="userSpaceOnUse">
<stop stop-color="white" stop-opacity="0"/>
<stop offset="0.5764" stop-color="white"/>
</linearGradient>
<linearGradient id="paint6_linear_96_2468" x1="73.5444" y1="33.1165" x2="73.5444" y2="39.6646" gradientUnits="userSpaceOnUse">
<stop stop-color="white" stop-opacity="0"/>
<stop offset="0.5764" stop-color="white"/>
</linearGradient>
<linearGradient id="paint7_linear_96_2468" x1="55.9186" y1="39.9483" x2="55.9186" y2="56.1982" gradientUnits="userSpaceOnUse">
<stop stop-color="white" stop-opacity="0"/>
<stop offset="0.5764" stop-color="white"/>
</linearGradient>
<linearGradient id="paint8_linear_96_2468" x1="73.3738" y1="62.6527" x2="57.7101" y2="78.3164" gradientUnits="userSpaceOnUse">
<stop offset="0.3156" stop-color="#F9D3C0"/>
<stop offset="0.4679" stop-color="#EFC9B7"/>
<stop offset="0.7294" stop-color="#D6ADA0"/>
<stop offset="1" stop-color="#B58A83"/>
</linearGradient>
<linearGradient id="paint9_linear_96_2468" x1="6.25204" y1="77.0653" x2="18.8632" y2="64.4542" gradientUnits="userSpaceOnUse">
<stop offset="0.3156" stop-color="#F9D3C0"/>
<stop offset="0.4679" stop-color="#EFC9B7"/>
<stop offset="0.7294" stop-color="#D6ADA0"/>
<stop offset="1" stop-color="#B58A83"/>
</linearGradient>
<linearGradient id="paint10_linear_96_2468" x1="58.065" y1="71.5722" x2="58.065" y2="78.0539" gradientUnits="userSpaceOnUse">
<stop stop-color="#EAC3AD"/>
<stop offset="0.2417" stop-color="#E5BDA9"/>
<stop offset="0.5514" stop-color="#D6AD9D"/>
<stop offset="0.8968" stop-color="#BE938A"/>
<stop offset="1" stop-color="#B58A83"/>
</linearGradient>
<linearGradient id="paint11_linear_96_2468" x1="20.1347" y1="70.7844" x2="20.1347" y2="75.4943" gradientUnits="userSpaceOnUse">
<stop stop-color="#EAC3AD"/>
<stop offset="0.2417" stop-color="#E5BDA9"/>
<stop offset="0.5514" stop-color="#D6AD9D"/>
<stop offset="0.8968" stop-color="#BE938A"/>
<stop offset="1" stop-color="#B58A83"/>
</linearGradient>
</defs>
</svg>
