<svg width="36" height="36" viewBox="0 0 36 36" fill="none" xmlns="http://www.w3.org/2000/svg">
<path d="M13.5 30.3753H6.75001C6.45164 30.3753 6.16549 30.2567 5.95451 30.0458C5.74353 29.8348 5.62501 29.5486 5.62501 29.2503V22.9643C5.62449 22.8183 5.6528 22.6735 5.7083 22.5384C5.7638 22.4032 5.8454 22.2804 5.94844 22.1768L22.8234 5.30184C22.9281 5.19554 23.0529 5.11113 23.1905 5.05351C23.3281 4.99589 23.4758 4.96622 23.625 4.96622C23.7742 4.96622 23.9219 4.99589 24.0595 5.05351C24.1971 5.11113 24.3219 5.19554 24.4266 5.30184L30.6984 11.5737C30.8047 11.6784 30.8892 11.8032 30.9468 11.9408C31.0044 12.0784 31.0341 12.2261 31.0341 12.3753C31.0341 12.5245 31.0044 12.6722 30.9468 12.8098C30.8892 12.9474 30.8047 13.0722 30.6984 13.1768L13.5 30.3753Z" stroke="#B5EAEE" stroke-width="1.5" stroke-linecap="round" stroke-linejoin="round"/>
<path d="M30.375 30.3753H13.5" stroke="#B5EAEE" stroke-width="1.5" stroke-linecap="round" stroke-linejoin="round"/>
<path d="M19.125 9.00027L27 16.8753" stroke="#B5EAEE" stroke-width="1.5" stroke-linecap="round" stroke-linejoin="round"/>
</svg>
