<svg
              width="36"
              height="37"
              viewBox="0 0 36 37"
              fill="none"
              xmlns="http://www.w3.org/2000/svg"
            >
              <g clipPath="url(#clip0_96_2346)">
                <path
                  d="M18 0.491211C8.05896 0.491211 0 8.55017 0 18.4912C0 26.9325 5.81184 34.0159 13.6519 35.9613V23.992H9.94032V18.4912H13.6519V16.121C13.6519 9.99449 16.4246 7.15481 22.4395 7.15481C23.58 7.15481 25.5478 7.37873 26.3527 7.60193V12.5879C25.9279 12.5433 25.1899 12.521 24.2734 12.521C21.3221 12.521 20.1816 13.6391 20.1816 16.5458V18.4912H26.0611L25.051 23.992H20.1816V36.3595C29.0945 35.2831 36.0007 27.6943 36.0007 18.4912C36 8.55017 27.941 0.491211 18 0.491211Z"
                  fill="#B5EAEE"
                />
              </g>
              <defs>
                <clipPath id="clip0_96_2346">
                  <rect
                    width="36"
                    height="36"
                    fill="white"
                    transform="translate(0 0.491211)"
                  />
                </clipPath>
              </defs>
            </svg>