<svg width="61" height="60" viewBox="0 0 61 60" fill="none" xmlns="http://www.w3.org/2000/svg">
<path d="M50.1875 23.4377C52.7763 23.4377 54.875 21.3391 54.875 18.7502C54.875 16.1614 52.7763 14.0627 50.1875 14.0627C47.5987 14.0627 45.5 16.1614 45.5 18.7502C45.5 21.3391 47.5987 23.4377 50.1875 23.4377Z" stroke="#B5EAEE" stroke-width="2.5" stroke-linecap="round" stroke-linejoin="round"/>
<path d="M21.125 34.4534V11.2502C21.125 9.26112 21.9152 7.35347 23.3217 5.94694C24.7282 4.54042 26.6359 3.75024 28.625 3.75024C30.6141 3.75024 32.5218 4.54042 33.9283 5.94694C35.3348 7.35347 36.125 9.26112 36.125 11.2502V34.4534C38.1253 36.0151 39.5883 38.1623 40.3097 40.5954C41.0311 43.0285 40.975 45.6261 40.1492 48.0257C39.3234 50.4254 37.7691 52.5074 35.7032 53.9813C33.6373 55.4552 31.1628 56.2474 28.625 56.2474C26.0872 56.2474 23.6127 55.4552 21.5468 53.9813C19.4809 52.5074 17.9266 50.4254 17.1008 48.0257C16.275 45.6261 16.2189 43.0285 16.9403 40.5954C17.6617 38.1623 19.1247 36.0151 21.125 34.4534Z" stroke="#B5EAEE" stroke-width="2.5" stroke-linecap="round" stroke-linejoin="round"/>
<path d="M28.625 48.7502C31.2138 48.7502 33.3125 46.6516 33.3125 44.0627C33.3125 41.4739 31.2138 39.3752 28.625 39.3752C26.0362 39.3752 23.9375 41.4739 23.9375 44.0627C23.9375 46.6516 26.0362 48.7502 28.625 48.7502Z" stroke="#B5EAEE" stroke-width="2.5" stroke-linecap="round" stroke-linejoin="round"/>
<path d="M28.625 39.3752V20.6252" stroke="#B5EAEE" stroke-width="2.5" stroke-linecap="round" stroke-linejoin="round"/>
</svg>
