<svg
              width="36"
              height="37"
              viewBox="0 0 36 37"
              fill="none"
              xmlns="http://www.w3.org/2000/svg"
            >
              <g clipPath="url(#clip0_96_2348)">
                <path
                  d="M18 3.73262C22.8094 3.73262 23.3789 3.75371 25.2703 3.83809C27.0281 3.91543 27.9773 4.21074 28.6102 4.45684C29.4469 4.78027 30.0516 5.17402 30.6773 5.7998C31.3102 6.43262 31.6969 7.03027 32.0203 7.86699C32.2664 8.4998 32.5617 9.45605 32.6391 11.2068C32.7234 13.1053 32.7445 13.6748 32.7445 18.4771C32.7445 23.2865 32.7234 23.8561 32.6391 25.7475C32.5617 27.5053 32.2664 28.4545 32.0203 29.0873C31.6969 29.924 31.3031 30.5287 30.6773 31.1545C30.0445 31.7873 29.4469 32.174 28.6102 32.4975C27.9773 32.7436 27.0211 33.0389 25.2703 33.1162C23.3719 33.2006 22.8023 33.2217 18 33.2217C13.1906 33.2217 12.6211 33.2006 10.7297 33.1162C8.97188 33.0389 8.02266 32.7436 7.38984 32.4975C6.55313 32.174 5.94844 31.7803 5.32266 31.1545C4.68984 30.5217 4.30312 29.924 3.97969 29.0873C3.73359 28.4545 3.43828 27.4982 3.36094 25.7475C3.27656 23.849 3.25547 23.2795 3.25547 18.4771C3.25547 13.6678 3.27656 13.0982 3.36094 11.2068C3.43828 9.44902 3.73359 8.4998 3.97969 7.86699C4.30312 7.03027 4.69688 6.42559 5.32266 5.7998C5.95547 5.16699 6.55313 4.78027 7.38984 4.45684C8.02266 4.21074 8.97891 3.91543 10.7297 3.83809C12.6211 3.75371 13.1906 3.73262 18 3.73262ZM18 0.491211C13.1133 0.491211 12.5016 0.512305 10.582 0.59668C8.66953 0.681055 7.35469 0.99043 6.21563 1.4334C5.02734 1.89746 4.02188 2.50918 3.02344 3.51465C2.01797 4.51309 1.40625 5.51855 0.942188 6.6998C0.499219 7.8459 0.189844 9.15371 0.105469 11.0662C0.0210938 12.9928 0 13.6045 0 18.4912C0 23.3779 0.0210938 23.9896 0.105469 25.9092C0.189844 27.8217 0.499219 29.1365 0.942188 30.2756C1.40625 31.4639 2.01797 32.4693 3.02344 33.4678C4.02188 34.4662 5.02734 35.085 6.20859 35.542C7.35469 35.985 8.6625 36.2943 10.575 36.3787C12.4945 36.4631 13.1062 36.4842 17.993 36.4842C22.8797 36.4842 23.4914 36.4631 25.4109 36.3787C27.3234 36.2943 28.6383 35.985 29.7773 35.542C30.9586 35.085 31.9641 34.4662 32.9625 33.4678C33.9609 32.4693 34.5797 31.4639 35.0367 30.2826C35.4797 29.1365 35.7891 27.8287 35.8734 25.9162C35.9578 23.9967 35.9789 23.385 35.9789 18.4982C35.9789 13.6115 35.9578 12.9998 35.8734 11.0803C35.7891 9.16777 35.4797 7.85293 35.0367 6.71387C34.5938 5.51855 33.982 4.51309 32.9766 3.51465C31.9781 2.51621 30.9727 1.89746 29.7914 1.44043C28.6453 0.997461 27.3375 0.688086 25.425 0.603711C23.4984 0.512305 22.8867 0.491211 18 0.491211Z"
                  fill="#B5EAEE"
                />
                <path
                  d="M18 9.24512C12.8953 9.24512 8.75391 13.3865 8.75391 18.4912C8.75391 23.5959 12.8953 27.7373 18 27.7373C23.1047 27.7373 27.2461 23.5959 27.2461 18.4912C27.2461 13.3865 23.1047 9.24512 18 9.24512ZM18 24.4889C14.6883 24.4889 12.0023 21.8029 12.0023 18.4912C12.0023 15.1795 14.6883 12.4936 18 12.4936C21.3117 12.4936 23.9977 15.1795 23.9977 18.4912C23.9977 21.8029 21.3117 24.4889 18 24.4889Z"
                  fill="#B5EAEE"
                />
                <path
                  d="M29.7703 8.8793C29.7703 10.0746 28.8 11.0379 27.6117 11.0379C26.4164 11.0379 25.4531 10.0676 25.4531 8.8793C25.4531 7.68399 26.4234 6.7207 27.6117 6.7207C28.8 6.7207 29.7703 7.69102 29.7703 8.8793Z"
                  fill="#B5EAEE"
                />
              </g>
              <defs>
                <clipPath id="clip0_96_2348">
                  <rect
                    width="36"
                    height="36"
                    fill="white"
                    transform="translate(0 0.491211)"
                  />
                </clipPath>
              </defs>
            </svg>