<svg
              width="36"
              height="37"
              viewBox="0 0 36 37"
              fill="none"
              xmlns="http://www.w3.org/2000/svg"
            >
              <g clipPath="url(#clip0_96_2349)">
                <path
                  fillRule="evenodd"
                  clipRule="evenodd"
                  d="M36 18.4912C36 28.4323 27.9411 36.4912 18 36.4912C8.05888 36.4912 0 28.4323 0 18.4912C0 8.55009 8.05888 0.491211 18 0.491211C27.9411 0.491211 36 8.55009 36 18.4912ZM18.645 13.7796C16.8943 14.5078 13.3952 16.015 8.14784 18.3012C7.29575 18.64 6.84939 18.9715 6.80875 19.2957C6.74008 19.8435 7.42607 20.0592 8.3602 20.3529C8.48727 20.3928 8.61893 20.4342 8.75391 20.4781C9.67296 20.7769 10.9092 21.1264 11.5519 21.1403C12.1349 21.1529 12.7856 20.9125 13.504 20.4192C18.4067 17.1097 20.9376 15.4369 21.0965 15.4009C21.2086 15.3754 21.3639 15.3434 21.4691 15.437C21.5744 15.5305 21.5641 15.7077 21.5529 15.7552C21.4849 16.0449 18.7922 18.5484 17.3987 19.8439C16.9643 20.2478 16.6561 20.5342 16.5931 20.5997C16.452 20.7462 16.3082 20.8849 16.17 21.0181C15.3162 21.8412 14.6759 22.4584 16.2054 23.4664C16.9405 23.9508 17.5286 24.3513 18.1154 24.7509C18.7563 25.1873 19.3954 25.6226 20.2224 26.1647C20.4331 26.3028 20.6343 26.4463 20.8303 26.586C21.5761 27.1177 22.2461 27.5953 23.0739 27.5192C23.5549 27.4749 24.0517 27.0226 24.304 25.6737C24.9003 22.4859 26.0724 15.5789 26.3433 12.7327C26.3671 12.4833 26.3372 12.1642 26.3132 12.0241C26.2893 11.884 26.2392 11.6844 26.057 11.5366C25.8414 11.3616 25.5085 11.3247 25.3595 11.3273C24.6825 11.3393 23.6438 11.7004 18.645 13.7796Z"
                  fill="#B5EAEE"
                />
              </g>
              <defs>
                <clipPath id="clip0_96_2349">
                  <rect
                    width="36"
                    height="36"
                    fill="white"
                    transform="translate(0 0.491211)"
                  />
                </clipPath>
              </defs>
            </svg>