<svg width="36" height="37" viewBox="0 0 36 37" fill="none" xmlns="http://www.w3.org/2000/svg"><g clip-path="url(#clip0_96_2350)"><path fill-rule="evenodd" clip-rule="evenodd" d="M2.5306 3.02181C0 5.55241 0 9.62531 0 17.7712V19.2112C0 27.3571 0 31.43 2.5306 33.9606C5.06119 36.4912 9.1341 36.4912 17.28 36.4912H18.72C26.8659 36.4912 30.9388 36.4912 33.4694 33.9606C36 31.43 36 27.3571 36 19.2112V17.7712C36 9.62531 36 5.55241 33.4694 3.02181C30.9388 0.491211 26.8659 0.491211 18.72 0.491211H17.28C9.1341 0.491211 5.06119 0.491211 2.5306 3.02181ZM6.07509 11.4413C6.27009 20.8013 10.9501 26.4263 19.1551 26.4263H19.6201V21.0713C22.6352 21.3713 24.915 23.5763 25.83 26.4263H30.0901C28.9201 22.1663 25.8449 19.8113 23.9249 18.9113C25.8449 17.8013 28.5449 15.1013 29.1899 11.4413H25.3199C24.4799 14.4113 21.9902 17.1113 19.6201 17.3663V11.4413H15.75V21.8213C13.35 21.2213 10.3201 18.3113 10.1851 11.4413H6.07509Z" fill="#B5EAEE"></path></g><defs><clipPath id="clip0_96_2350"><rect width="36" height="36" fill="white" transform="translate(0 0.491211)"></rect></clipPath></defs></svg>